SplineFontDB: 3.0
FontName: Rokkitt-LightItalic
FullName: Rokkitt Light Italic
FamilyName: Rokkitt
Weight: Light
Copyright: Copyright 2011 Vernon Adams Incorporated. All rights reserved.
Version: 001.001
ItalicAngle: -12
UnderlinePosition: -103
UnderlineWidth: 102
Ascent: 1536
Descent: 512
sfntRevision: 0x00010000
LayerCount: 2
Layer: 0 0 "Back"  1
Layer: 1 0 "Fore"  0
NeedsXUIDChange: 1
XUID: [1021 118 1023546858 15124419]
FSType: 4
OS2Version: 0
OS2_WeightWidthSlopeOnly: 0
OS2_UseTypoMetrics: 1
CreationTime: 1318326524
ModificationTime: 1318545169
PfmFamily: 81
TTFWeight: 300
TTFWidth: 5
LineGap: 0
VLineGap: 0
Panose: 0 0 0 0 0 0 0 0 0 0
OS2TypoAscent: 1809
OS2TypoAOffset: 0
OS2TypoDescent: -439
OS2TypoDOffset: 0
OS2TypoLinegap: 0
OS2WinAscent: 1809
OS2WinAOffset: 0
OS2WinDescent: 439
OS2WinDOffset: 0
HheadAscent: 1809
HheadAOffset: 0
HheadDescent: -439
HheadDOffset: 0
OS2SubXSize: 1331
OS2SubYSize: 1228
OS2SubXOff: 0
OS2SubYOff: 153
OS2SupXSize: 1331
OS2SupYSize: 1228
OS2SupXOff: 0
OS2SupYOff: 716
OS2StrikeYSize: 102
OS2StrikeYPos: 477
OS2Vendor: 'newt'
OS2CodePages: 20000081.00000000
OS2UnicodeRanges: 00000003.00000000.00000000.00000000
Lookup: 4 0 1 "'liga' Standard Ligatures in Latin lookup 0"  {"'liga'"  } ['liga' ('DFLT' <'dflt' > 'latn' <'dflt' > ) ]
Lookup: 258 0 0 "'kern' Horizontal Kerning in Latin lookup 0"  {"'kern' Horizontal Kerning in Latin lookup 0 subtable"  } ['kern' ('latn' <'dflt' > ) ]
MarkAttachClasses: 1
DEI: 91125
LangName: 1033 "" "" "Italic" "1.000;newt;Rokkitt-LightItalic" "Rokkitt-LightItalic" "" "" "Please refer to the Copyright section for the font trademark attribution notices." "" "" "" "" "" "" "http://scripts.sil.org/OFL" "" "Rokkitt" 
Encoding: iso8859-2
Compacted: 1
UnicodeInterp: none
NameList: Adobe Glyph List
DisplaySize: -48
AntiAlias: 1
FitToEm: 1
WinInfo: 26 26 9
BeginPrivate: 6
BlueValues 25 [-20 0 840 851 1311 1332]
OtherBlues 11 [-329 -329]
StdHW 4 [60]
StdVW 4 [78]
StemSnapH 10 [60 72 78]
StemSnapV 7 [68 78]

StartChar: i
Encoding: 105 105 4
Width: 507
VWidth: 1986
Flags: HMW
HStem: -9 59<239 296 239 300> 747 56<89 241 77 336> 994 136<311 352>
VStem: 121 76<105 125 105 148> 262 139<1043 1076 1043 1081>
LayerCount: 2
Fore
SplineSet
128 202 m 2
 241 747 l 1
 77 747 l 1
 89 803 l 1
 336 803 l 1
 211 204 l 2
 206 180 198 151 198 125 c 0
 198 84 214 50 264 50 c 0
 328 50 360 132 384 207 c 1
 437 186 l 1
 404 63 347 -9 253 -9 c 0
 163 -9 121 55 121 139 c 0
 121 159 123 180 128 202 c 2
262 1060 m 0
 262 1102 291 1130 328 1130 c 0
 379 1130 401 1092 401 1060 c 0
 401 1027 375 994 330 994 c 0
 291 994 262 1024 262 1060 c 0
EndSplineSet
EndChar

StartChar: n
Encoding: 110 110 5
Width: 1013
VWidth: 1986
Flags: HMW
HStem: -9 59<732 786 732 793> 0 21G<89 89 89 171> 747 56<91 236 77 326> 765 60<527 629>
VStem: 619 78<101 120 101 134> 721 75<606 657>
LayerCount: 2
Fore
SplineSet
89 0 m 1x54
 236 747 l 1
 77 747 l 1
 91 803 l 1
 326 803 l 1xa4
 285 649 l 1
 358 759 464 826 589 826 c 0
 736 826 797 736 797 620 c 0
 797 592 794 560 787 529 c 2x94
 708 196 l 2
 703 176 698 148 698 120 c 0
 698 83 709 50 753 50 c 0
 818 50 855 131 875 204 c 1
 932 182 l 1
 906 61 841 -9 744 -9 c 0
 662 -9 619 48 619 121 c 0
 619 145 622 171 628 195 c 2x9c
 710 534 l 2
 717 562 721 590 721 616 c 0
 721 699 680 765 576 765 c 0
 470 765 303 668 261 455 c 2
 171 0 l 1
 89 0 l 1x54
EndSplineSet
EndChar

StartChar: l
Encoding: 108 108 6
Width: 537
VWidth: 1986
Flags: HMW
HStem: -9 59<242 298 242 305> 1188 56<185 337 172 431>
VStem: 123 79<105 139 105 148>
LayerCount: 2
Fore
SplineSet
130 202 m 2
 337 1188 l 1
 172 1188 l 1
 185 1244 l 1
 431 1244 l 1
 213 204 l 2
 208 180 203 151 203 125 c 0
 203 84 217 50 266 50 c 0
 331 50 363 132 387 207 c 1
 440 186 l 1
 409 63 352 -9 257 -9 c 0
 166 -9 123 55 123 139 c 0
 123 159 125 181 130 202 c 2
EndSplineSet
EndChar

StartChar: e
Encoding: 101 101 7
Width: 852
VWidth: 1986
Flags: HMW
HStem: -18 59<331 449 331 459> 408 54<155 697 155 756 147 697> 765 60<409 547>
VStem: 59 81<249 357 249 460> 703 66<516 595>
LayerCount: 2
Fore
SplineSet
59 345 m 0
 59 577 209 826 478 826 c 0
 656 826 768 689 768 516 c 0
 768 488 762 428 756 408 c 1
 147 408 l 1
 142 389 141 367 141 347 c 0
 141 151 260 42 402 42 c 0
 497 42 603 93 687 202 c 1
 736 165 l 1
 651 42 520 -18 399 -18 c 0
 223 -18 59 106 59 345 c 0
481 765 m 0
 335 765 199 657 155 461 c 1
 697 461 l 1
 701 485 703 505 703 526 c 0
 703 664 613 765 481 765 c 0
EndSplineSet
EndChar

StartChar: R
Encoding: 82 82 8
Width: 1158
VWidth: 1986
Flags: HMW
HStem: 0 60<-43 123 211 405 -53 123 689 761 855 1051> 635 60<346 469 334 670 553 653 553 553> 1212 61<189 367 176 759 456 456 456 758>
VStem: 1012 85<931 1058>
LayerCount: 2
Fore
SplineSet
653 635 m 2
 553 635 l 1
 855 60 l 1
 1059 60 l 1
 1051 0 l 1
 682 0 l 1
 689 60 l 1
 761 60 l 1
 469 635 l 1
 334 635 l 1
 211 60 l 1
 416 60 l 1
 405 0 l 1
 -53 0 l 1
 -43 60 l 1
 123 60 l 1
 367 1212 l 1
 176 1212 l 1
 189 1273 l 1
 759 1273 l 2
 993 1273 1097 1149 1097 1010 c 0
 1097 833 928 635 653 635 c 2
346 695 m 1
 670 695 l 2
 880 695 1012 858 1012 1003 c 0
 1012 1113 932 1212 758 1212 c 2
 456 1212 l 1
 346 695 l 1
EndSplineSet
EndChar

StartChar: c
Encoding: 99 99 9
Width: 803
VWidth: 1986
Flags: HMW
HStem: -18 59<296 428 296 437> 765 60<394 558>
VStem: 57 74<248 425 248 443> 669 71<719 720>
LayerCount: 2
Fore
SplineSet
514 765 m 0
 273 765 132 526 132 323 c 0
 132 173 210 42 383 42 c 0
 472 42 571 93 649 202 c 1
 698 165 l 1
 619 42 493 -18 380 -18 c 0
 158 -18 57 145 57 326 c 0
 57 559 224 826 517 826 c 0
 624 826 749 778 741 719 c 2
 727 613 l 1
 657 595 l 1
 669 711 l 1
 669 728 601 765 514 765 c 0
EndSplineSet
EndChar

StartChar: h
Encoding: 104 104 10
Width: 1006
VWidth: 1986
Flags: HMW
HStem: -9 59<728 781 728 790> 0 21G<85 168 85 85> 765 60<528 626> 1172 55<170 322 159 417>
VStem: 615 75<100 133 100 137> 717 75<606 656>
LayerCount: 2
Fore
SplineSet
417 1228 m 1xb4
 298 673 l 1
 369 769 471 826 583 826 c 0
 731 826 793 736 793 620 c 0
 793 592 790 560 783 529 c 2xb4
 704 196 l 2
 700 179 691 148 691 118 c 0
 691 83 704 50 750 50 c 0
 813 50 850 131 872 204 c 1
 928 182 l 1
 902 61 833 -9 746 -9 c 0
 648 -9 615 52 615 125 c 0
 615 148 618 171 624 195 c 2xbc
 706 534 l 1
 714 560 717 590 717 614 c 0
 717 698 677 765 573 765 c 0
 464 765 300 667 258 455 c 2
 168 0 l 1
 85 0 l 1x74
 322 1172 l 1
 159 1172 l 1
 170 1228 l 1
 417 1228 l 1xb4
EndSplineSet
EndChar

StartChar: u
Encoding: 117 117 11
Width: 992
VWidth: 1986
Flags: HMW
HStem: -19 60<292 392> -9 59<724 780 724 787> 747 56<79 224 66 315>
VStem: 125 78<162 211> 613 78<105 137 105 139>
LayerCount: 2
Fore
SplineSet
821 803 m 1xb8
 703 196 l 2
 700 180 692 150 692 123 c 0
 692 87 699 50 748 50 c 0
 813 50 849 131 868 204 c 1
 926 182 l 1
 899 61 836 -9 739 -9 c 0x78
 656 -9 613 54 613 139 c 1
 542 40 452 -19 334 -19 c 0
 189 -19 125 76 125 200 c 0
 125 223 127 248 133 277 c 2
 224 747 l 1
 66 747 l 1
 79 803 l 1
 315 803 l 1
 211 274 l 1
 208 252 204 230 204 205 c 0
 204 121 238 42 346 42 c 0
 451 42 610 140 652 352 c 2
 742 803 l 1
 821 803 l 1xb8
EndSplineSet
EndChar

StartChar: A
Encoding: 65 65 12
Width: 1275
VWidth: 1986
Flags: HMW
HStem: 0 60<-85 66 148 298 -85 66 804 962 1044 1188> 438 59<395 887 395 897 362 887> 1185 87<775 775> 1252 20G<743 844 844 844>
VStem: -85 1273<0 60 0 60>
LayerCount: 2
Fore
SplineSet
-85 60 m 1xd8
 66 60 l 1
 743 1272 l 1
 844 1272 l 1
 1044 60 l 1
 1188 60 l 1
 1188 0 l 1
 804 0 l 1
 804 60 l 1
 962 60 l 1
 897 438 l 1
 362 438 l 1
 148 60 l 1
 298 60 l 1
 298 0 l 1
 -85 0 l 1
 -85 60 l 1xd8
775 1185 m 1xe8
 395 497 l 1
 887 497 l 1
 775 1185 l 1xe8
EndSplineSet
EndChar

StartChar: L
Encoding: 76 76 13
Width: 1032
VWidth: 1986
Flags: HMW
HStem: 0 60<-45 128 209 795 -55 128> 1211 61<188 365 177 644 449 449 449 634>
VStem: -55 987<0 324>
LayerCount: 2
Fore
SplineSet
849 324 m 1
 932 324 l 1
 910 216 888 107 865 0 c 1
 -55 0 l 1
 -45 60 l 1
 128 60 l 1
 365 1211 l 1
 177 1211 l 1
 188 1272 l 1
 644 1272 l 1
 634 1211 l 1
 449 1211 l 1
 209 60 l 1
 795 60 l 1
 849 324 l 1
EndSplineSet
EndChar

StartChar: F
Encoding: 70 70 14
Width: 913
VWidth: 1986
Flags: HMW
HStem: 0 60<-45 127 208 372 -55 127> 640 59<342 752 330 765> 1211 61<177 1040 187 365 449 449 449 944>
VStem: -55 1094
LayerCount: 2
Fore
SplineSet
177 1211 m 1
 187 1272 l 1
 1040 1272 l 1
 984 1008 l 1
 901 1008 l 1
 944 1211 l 1
 449 1211 l 1
 342 699 l 1
 765 699 l 1
 752 640 l 1
 330 640 l 1
 208 60 l 1
 384 60 l 1
 372 0 l 1
 -55 0 l 1
 -45 60 l 1
 127 60 l 1
 365 1211 l 1
 177 1211 l 1
EndSplineSet
EndChar

StartChar: E
Encoding: 69 69 15
Width: 990
VWidth: 1986
Flags: HMW
HStem: 0 60<-45 128 209 759 -55 128> 620 60<339 752 326 766> 1211 61<188 365 177 1040 449 449 449 944>
VStem: -55 1094
LayerCount: 2
Fore
SplineSet
813 324 m 1
 895 324 l 1
 841 60 l 1
 830 0 l 1
 -55 0 l 1
 -45 60 l 1
 128 60 l 1
 365 1211 l 1
 177 1211 l 1
 188 1272 l 1
 1040 1272 l 1
 985 1008 l 1
 900 1008 l 1
 944 1211 l 1
 449 1211 l 1
 339 680 l 1
 766 680 l 1
 752 620 l 1
 326 620 l 1
 209 60 l 1
 759 60 l 1
 813 324 l 1
EndSplineSet
EndChar

StartChar: D
Encoding: 68 68 16
Width: 1223
VWidth: 1986
Flags: HMW
HStem: 0 60<-45 128 209 536 536 537 -55 128> 1211 61<187 365 177 666 449 449 449 666 666 667>
VStem: 1089 81<587 856>
LayerCount: 2
Fore
SplineSet
537 0 m 2
 -55 0 l 1
 -45 60 l 1
 128 60 l 1
 365 1211 l 1
 177 1211 l 1
 187 1272 l 1
 666 1272 l 2
 981 1272 1170 1029 1170 742 c 0
 1170 360 939 0 537 0 c 2
209 60 m 1
 536 60 l 2
 912 60 1089 435 1089 740 c 0
 1089 975 973 1211 667 1211 c 2
 449 1211 l 1
 209 60 l 1
EndSplineSet
EndChar

StartChar: M
Encoding: 77 77 17
Width: 1694
VWidth: 1986
Flags: HMW
HStem: 0 60<-97 74 155 348 -108 74 1184 1347 1430 1579> 1212 61<371 550 361 649 1531 1671 1531 1531>
VStem: -108 1789<0 1273>
LayerCount: 2
Fore
SplineSet
1681 1273 m 1
 1671 1212 l 1
 1531 1212 l 1
 1430 60 l 1
 1600 60 l 1
 1579 0 l 1
 1163 0 l 1
 1184 60 l 1
 1347 60 l 1
 1451 1148 l 1
 775 0 l 1
 730 0 l 1
 591 1136 l 1
 155 60 l 1
 360 60 l 1
 348 0 l 1
 -108 0 l 1
 -97 60 l 1
 74 60 l 1
 550 1212 l 1
 361 1212 l 1
 371 1273 l 1
 649 1273 l 1
 783 154 l 1
 1441 1273 l 1
 1681 1273 l 1
EndSplineSet
EndChar

StartChar: U
Encoding: 85 85 18
Width: 1245
VWidth: 1986
Flags: HMW
HStem: -20 66<472 640 472 655> 1212 61<165 345 155 623 429 429 429 611 942 1121 1204 1388 1204 1204>
VStem: 169 81<251 333>
LayerCount: 2
Fore
SplineSet
1204 1212 m 1
 1033 392 l 2
 972 105 756 -20 556 -20 c 0
 355 -20 169 105 169 319 c 0
 169 346 173 375 179 404 c 2
 345 1212 l 1
 155 1212 l 1
 165 1273 l 1
 623 1273 l 1
 611 1212 l 1
 429 1212 l 1
 258 402 l 2
 254 383 250 363 250 347 c 0
 250 155 385 47 558 47 c 0
 720 47 895 150 946 392 c 2
 1121 1212 l 1
 933 1212 l 1
 942 1273 l 1
 1399 1273 l 1
 1388 1212 l 1
 1204 1212 l 1
EndSplineSet
EndChar

StartChar: S
Encoding: 83 83 19
Width: 887
VWidth: 1986
Flags: HMW
HStem: -20 66<319 462 319 487> 0 21G<32 32 32 102> 1228 65<473 597 458 617> 1252 20G<793 854 854 854>
VStem: 191 90<855 986 855 1080> 689 91<302 451>
LayerCount: 2
Fore
SplineSet
32 0 m 1x6c
 78 289 l 1
 149 304 l 1
 136 220 l 1
 119 99 249 47 389 47 c 0
 537 47 689 105 689 302 c 0
 689 601 191 683 191 977 c 0
 191 1183 358 1292 558 1292 c 0
 635 1292 761 1253 787 1196 c 1xac
 793 1272 l 1
 854 1272 l 1x9c
 831 1034 l 1
 765 1014 l 1
 771 1067 l 1
 782 1148 680 1228 553 1228 c 0
 393 1228 281 1142 281 986 c 0
 281 725 780 643 780 301 c 0
 780 98 596 -20 377 -20 c 0xac
 168 -20 116 85 116 85 c 1
 102 0 l 1
 32 0 l 1x6c
EndSplineSet
EndChar

StartChar: T
Encoding: 84 84 20
Width: 951
VWidth: 1986
Flags: HMW
HStem: 0 60<125 297 377 570 115 297> 1212 61<198 534 198 198 618 972 618 618>
VStem: 73 994<1009 1273>
LayerCount: 2
Fore
SplineSet
128 1273 m 1
 1067 1273 l 1
 1013 1009 l 1
 930 1009 l 1
 972 1212 l 1
 618 1212 l 1
 377 60 l 1
 581 60 l 1
 570 0 l 1
 115 0 l 1
 125 60 l 1
 297 60 l 1
 534 1212 l 1
 198 1212 l 1
 156 1009 l 1
 73 1009 l 1
 128 1273 l 1
EndSplineSet
EndChar

StartChar: B
Encoding: 66 66 21
Width: 1059
VWidth: 1986
Flags: HMW
HStem: 0 60<-32 134 221 504 -44 134> 634 60<357 575 575 630 345 575> 1211 61<200 378 187 668 466 466 466 667>
VStem: 894 85<302 438> 939 81<943 1069>
LayerCount: 2
Fore
SplineSet
1020 1014 m 0xe8
 1020 853 885 721 723 676 c 1
 914 641 979 499 979 386 c 0xf0
 979 202 814 0 504 0 c 2
 -44 0 l 1
 -32 60 l 1
 134 60 l 1
 378 1211 l 1
 187 1211 l 1
 200 1272 l 1
 668 1272 l 2
 911 1272 1020 1150 1020 1014 c 0xe8
519 60 m 2xf0
 754 60 894 227 894 377 c 0
 894 498 816 634 630 634 c 2
 345 634 l 1
 221 60 l 1
 519 60 l 2xf0
357 694 m 1
 575 694 l 2
 783 694 939 869 939 1017 c 0xe8
 939 1122 856 1211 667 1211 c 2
 466 1211 l 1
 357 694 l 1
EndSplineSet
EndChar

StartChar: G
Encoding: 71 71 22
Width: 1271
VWidth: 1986
Flags: HMW
HStem: -20 66<471 706 471 709> 527 60<761 1064 761 1290 1140 1140 1140 1290> 1228 65<550 799 532 823> 1252 20G<1100 1168 1168 1168>
VStem: 89 84<407 709 407 739>
LayerCount: 2
Fore
SplineSet
1128 977 m 1xe8
 1074 959 l 1
 1041 1129 913 1228 733 1228 c 0
 369 1228 173 872 173 545 c 0
 173 268 320 47 622 47 c 0
 791 47 1022 142 1064 527 c 1
 761 527 l 1
 761 587 l 1
 1290 587 l 1
 1290 527 l 1
 1140 527 l 1
 1076 65 816 -20 604 -20 c 0
 266 -20 89 244 89 554 c 0
 89 923 333 1292 731 1292 c 0xe8
 867 1292 1008 1239 1078 1124 c 1
 1100 1272 l 1
 1168 1272 l 1xd8
 1128 977 l 1xe8
EndSplineSet
EndChar

StartChar: H
Encoding: 72 72 23
Width: 1470
VWidth: 1986
Flags: HMW
HStem: 0 60<-43 129 210 403 -53 129 899 1071 1153 1345> 617 61<340 1181 327 1192> 1211 61<188 366 177 644 450 450 450 635 1132 1296 1392 1392 1392 1576>
VStem: -53 1640<0 1272>
LayerCount: 2
Fore
SplineSet
1120 1211 m 1
 1132 1272 l 1
 1587 1272 l 1
 1576 1211 l 1
 1392 1211 l 1
 1153 60 l 1
 1357 60 l 1
 1345 0 l 1
 890 0 l 1
 899 60 l 1
 1071 60 l 1
 1181 617 l 1
 327 617 l 1
 210 60 l 1
 414 60 l 1
 403 0 l 1
 -53 0 l 1
 -43 60 l 1
 129 60 l 1
 366 1211 l 1
 177 1211 l 1
 188 1272 l 1
 644 1272 l 1
 635 1211 l 1
 450 1211 l 1
 340 678 l 1
 1192 678 l 1
 1296 1211 l 1
 1120 1211 l 1
EndSplineSet
EndChar

StartChar: I
Encoding: 73 73 24
Width: 528
VWidth: 1986
Flags: HMW
HStem: 0 60<-45 128 209 401 -55 128> 1211 61<177 644 187 365 449 449 449 634>
VStem: -55 700
LayerCount: 2
Fore
SplineSet
177 1211 m 1
 187 1272 l 1
 644 1272 l 1
 634 1211 l 1
 449 1211 l 1
 209 60 l 1
 412 60 l 1
 401 0 l 1
 -55 0 l 1
 -45 60 l 1
 128 60 l 1
 365 1211 l 1
 177 1211 l 1
EndSplineSet
EndChar

StartChar: J
Encoding: 74 74 25
Width: 442
VWidth: 1986
Flags: HMW
HStem: -102 59 1211 61<211 337 197 573 420 420 420 560>
VStem: -178 752
LayerCount: 2
Fore
SplineSet
102 100 m 2
 337 1211 l 1
 197 1211 l 1
 211 1272 l 1
 573 1272 l 1
 560 1211 l 1
 420 1211 l 1
 184 101 l 2
 149 -64 57 -103 -71 -102 c 2
 -178 -101 l 1
 -170 -42 l 1
 -58 -42 l 2
 38 -42 79 -3 102 100 c 2
EndSplineSet
EndChar

StartChar: K
Encoding: 75 75 26
Width: 1197
VWidth: 1986
Flags: HMW
HStem: 0 60<-43 129 210 403 -53 129 739 876 972 1165> 1211 61<188 366 177 644 450 635 450 450 899 990 1106 1106 1106 1284>
VStem: -53 1348<0 1272>
LayerCount: 2
Fore
SplineSet
450 1211 m 1
 333 646 l 1
 990 1211 l 1
 886 1211 l 1
 899 1272 l 1
 1295 1272 l 1
 1284 1211 l 1
 1106 1211 l 1
 450 651 l 1
 972 60 l 1
 1177 60 l 1
 1165 0 l 1
 728 0 l 1
 739 60 l 1
 876 60 l 1
 380 620 l 1
 316 568 l 1
 210 60 l 1
 414 60 l 1
 403 0 l 1
 -53 0 l 1
 -43 60 l 1
 129 60 l 1
 366 1211 l 1
 177 1211 l 1
 188 1272 l 1
 644 1272 l 1
 635 1211 l 1
 450 1211 l 1
EndSplineSet
EndChar

StartChar: N
Encoding: 78 78 27
Width: 1355
VWidth: 1986
Flags: HMW
HStem: 0 60<-47 132 206 399 -57 132> 1212 61<184 370 173 461 1046 1214 1297 1297 1297 1488>
VStem: -57 1557<0 1273>
LayerCount: 2
Fore
SplineSet
1037 1212 m 1
 1046 1273 l 1
 1500 1273 l 1
 1488 1212 l 1
 1297 1212 l 1
 1050 0 l 1
 973 0 l 1
 436 1156 l 1
 206 60 l 1
 411 60 l 1
 399 0 l 1
 -57 0 l 1
 -47 60 l 1
 132 60 l 1
 370 1212 l 1
 173 1212 l 1
 184 1273 l 1
 461 1273 l 1
 997 122 l 1
 1214 1212 l 1
 1037 1212 l 1
EndSplineSet
EndChar

StartChar: O
Encoding: 79 79 28
Width: 1294
VWidth: 1986
Flags: HMW
HStem: -20 66<455 799 455 814> 1226 67<548 883>
VStem: 89 84<435 713 435 745> 1154 81<554 842>
LayerCount: 2
Fore
SplineSet
729 1292 m 0
 1044 1292 1237 1032 1237 713 c 0
 1237 323 1011 -20 616 -20 c 0
 269 -20 89 258 89 549 c 0
 89 942 334 1292 729 1292 c 0
731 1226 m 0
 367 1226 173 878 173 547 c 0
 173 321 297 47 614 47 c 0
 982 47 1154 397 1154 711 c 0
 1154 974 1037 1226 731 1226 c 0
EndSplineSet
EndChar

StartChar: P
Encoding: 80 80 29
Width: 1076
VWidth: 1986
Flags: HMW
HStem: 0 60<-42 124 212 405 -53 124> 523 61<324 601 311 617> 1212 61<190 368 177 731 457 730 457 457>
VStem: 1002 85<875 1029>
LayerCount: 2
Fore
SplineSet
324 584 m 1
 617 584 l 2
 858 584 1002 789 1002 962 c 0
 1002 1095 919 1212 730 1212 c 2
 457 1212 l 1
 324 584 l 1
601 523 m 2
 311 523 l 1
 212 60 l 1
 417 60 l 1
 405 0 l 1
 -53 0 l 1
 -42 60 l 1
 124 60 l 1
 368 1212 l 1
 177 1212 l 1
 190 1273 l 1
 731 1273 l 2
 979 1273 1088 1130 1088 969 c 0
 1088 761 906 523 601 523 c 2
EndSplineSet
EndChar

StartChar: Q
Encoding: 81 81 30
Width: 1294
VWidth: 1986
Flags: HMW
HStem: -184 66<815 876> -20 35 -20 66<455 799 455 814> 1226 67<548 883>
VStem: 89 84<435 713 435 745> 1154 81<554 842>
LayerCount: 2
Fore
SplineSet
461 23 m 1xdc
 605 9 l 1
 694 -81 770 -119 858 -119 c 0
 901 -119 947 -110 998 -93 c 1
 1007 -158 l 1
 950 -176 899 -184 852 -184 c 0
 704 -184 603 -99 461 23 c 1xdc
729 1292 m 0
 1044 1292 1237 1032 1237 713 c 0
 1237 323 1011 -20 616 -20 c 0xbc
 269 -20 89 258 89 549 c 0
 89 942 334 1292 729 1292 c 0
731 1226 m 0
 367 1226 173 878 173 547 c 0
 173 321 297 47 614 47 c 0xbc
 982 47 1154 397 1154 711 c 0
 1154 974 1037 1226 731 1226 c 0
EndSplineSet
EndChar

StartChar: V
Encoding: 86 86 31
Width: 1162
VWidth: 1986
Flags: HMW
HStem: 0 21G<401 503 401 401> 0 102<473 473 473 503 401 473> 1184 61<53 198 53 438 294 294 294 438 981 1113 1213 1364 1213 1213>
VStem: 53 1311<1184 1244 1184 1244>
LayerCount: 2
Fore
SplineSet
1364 1184 m 1xb0
 1213 1184 l 1
 503 0 l 1
 401 0 l 1
 198 1184 l 1
 53 1184 l 1
 53 1244 l 1
 438 1244 l 1
 438 1184 l 1
 294 1184 l 1
 473 102 l 1x70
 1113 1184 l 1
 981 1184 l 1
 981 1244 l 1
 1364 1244 l 1
 1364 1184 l 1xb0
EndSplineSet
EndChar

StartChar: X
Encoding: 88 88 32
Width: 1091
VWidth: 1986
Flags: HMW
HStem: 0 60<-74 71 177 356 -99 71 601 772 853 1042> 1211 61<101 583 126 320 404 404 404 557 776 943 1050 1050 1050 1211>
VStem: -99 1333<0 1272>
LayerCount: 2
Fore
SplineSet
101 1211 m 1
 126 1272 l 1
 583 1272 l 1
 557 1211 l 1
 404 1211 l 1
 588 742 l 1
 943 1211 l 1
 753 1211 l 1
 776 1272 l 1
 1234 1272 l 1
 1211 1211 l 1
 1050 1211 l 1
 624 649 l 1
 853 60 l 1
 1056 60 l 1
 1042 0 l 1
 586 0 l 1
 601 60 l 1
 772 60 l 1
 569 577 l 1
 177 60 l 1
 380 60 l 1
 356 0 l 1
 -99 0 l 1
 -74 60 l 1
 71 60 l 1
 534 670 l 1
 320 1211 l 1
 101 1211 l 1
EndSplineSet
EndChar

StartChar: Y
Encoding: 89 89 33
Width: 975
VWidth: 1986
Flags: HMW
HStem: 0 60<169 340 422 615 158 340> 1211 61<39 171 28 423 268 268 268 412 808 928 1027 1178 1027 1027>
VStem: 28 1161<1211 1272>
LayerCount: 2
Fore
SplineSet
1178 1211 m 1
 1027 1211 l 1
 514 504 l 1
 422 60 l 1
 625 60 l 1
 615 0 l 1
 158 0 l 1
 169 60 l 1
 340 60 l 1
 432 510 l 1
 171 1211 l 1
 28 1211 l 1
 39 1272 l 1
 423 1272 l 1
 412 1211 l 1
 268 1211 l 1
 493 592 l 1
 928 1211 l 1
 796 1211 l 1
 808 1272 l 1
 1189 1272 l 1
 1178 1211 l 1
EndSplineSet
EndChar

StartChar: W
Encoding: 87 87 34
Width: 1637
VWidth: 1986
Flags: HMW
HStem: 0 21G<299 401 299 299 981 1083 981 981> 0 102<371 371 371 401 299 371> 1211 61<81 225 81 466 315 315 315 466 1455 1586 1687 1837 1687 1687>
VStem: 81 1756<1211 1272 1211 1272>
LayerCount: 2
Fore
SplineSet
1837 1211 m 1xb0
 1687 1211 l 1
 1083 0 l 1
 981 0 l 1
 913 1053 l 1
 401 0 l 1
 299 0 l 1
 225 1211 l 1
 81 1211 l 1
 81 1272 l 1
 466 1272 l 1
 466 1211 l 1
 315 1211 l 1
 371 102 l 1
 933 1272 l 1
 976 1272 l 1
 1053 102 l 1x70
 1586 1211 l 1
 1455 1211 l 1
 1455 1272 l 1
 1837 1272 l 1
 1837 1211 l 1xb0
EndSplineSet
EndChar

StartChar: Z
Encoding: 90 90 35
Width: 987
VWidth: 1986
Flags: HMW
HStem: 0 60<97 768 97 840> 1211 61<298 905 298 298>
VStem: -51 1102
LayerCount: 2
Fore
SplineSet
823 324 m 1
 904 324 l 1
 840 0 l 1
 -51 0 l 1
 905 1211 l 1
 298 1211 l 1
 244 947 l 1
 161 947 l 1
 228 1272 l 1
 1050 1272 l 1
 97 60 l 1
 768 60 l 1
 823 324 l 1
EndSplineSet
EndChar

StartChar: AE
Encoding: 258 198 37
Width: 2036
VWidth: 1986
Flags: HMW
HStem: 0 62<-78 79 168 288 -118 79 809 969> 509 62 586 107 921 325 1182 64<1064 1184 1025 2085>
VStem: 209 80 1600 52 2164 121 2352 68
LayerCount: 2
Fore
SplineSet
1991 1175 m 1xf780
 1321 1175 l 1
 1201 672 l 1
 1637 672 l 1
 1675 832 l 1
 1743 832 l 1
 1646 428 l 1
 1578 428 l 1
 1620 602 l 1
 1184 602 l 1
 1056 70 l 1
 1746 70 l 1
 1820 380 l 1
 1899 380 l 1
 1809 0 l 1
 771 0 l 1
 809 62 l 1
 969 62 l 1
 1079 508 l 1
 600 508 l 1
 168 62 l 1
 327 62 l 1
 288 0 l 1
 -118 0 l 1
 -78 62 l 1
 79 62 l 1
 1184 1182 l 1
 1025 1182 l 1xef80
 1064 1245 l 1
 2085 1245 l 1
 1994 865 l 1
 1916 865 l 1
 1991 1175 l 1xf780
1242 1164 m 1
 658 568 l 1
 1093 568 l 1
 1242 1164 l 1
EndSplineSet
EndChar

StartChar: OE
Encoding: 259 338 38
Width: 1894
VWidth: 1986
Flags: HMW
HStem: -23 102 0 79 586 107 921 325
VStem: -69 68 873 53 1060 69 1438 119 1627 69
LayerCount: 2
Fore
SplineSet
1848 1175 m 1xbf80
 1203 1175 l 1
 1096 672 l 1
 1533 672 l 1
 1568 832 l 1
 1634 832 l 1
 1549 428 l 1
 1481 428 l 1
 1519 602 l 1
 1081 602 l 1
 967 70 l 1
 1634 70 l 1
 1701 380 l 1
 1778 380 l 1
 1699 0 l 1
 599 0 l 2x7f80
 234 0 68 222 68 482 c 0
 68 830 368 1245 862 1245 c 2
 1940 1245 l 1
 1861 865 l 1
 1782 865 l 1
 1848 1175 l 1xbf80
885 70 m 1
 1120 1169 l 1
 847 1169 l 2
 410 1169 154 798 154 491 c 0
 154 262 294 70 612 70 c 2
 885 70 l 1
EndSplineSet
EndChar

StartChar: ampersand
Encoding: 38 38 39
Width: 1080
VWidth: 1986
Flags: HMW
HStem: -23 71<254 379> 0 68<831 978 782 992> 1194 73<534 650>
VStem: -12 78<220 271> 273 73<967 1040 967 1044> 778 76<1072 1110>
LayerCount: 2
Fore
SplineSet
862 454 m 1x7c
 923 435 l 1
 890 315 786 197 766 175 c 1
 831 68 l 1
 992 68 l 1
 978 0 l 1
 782 0 l 1x7c
 706 122 l 1
 574 3 439 -23 320 -23 c 0xbc
 124 -23 -12 98 -12 260 c 0
 -12 283 -10 303 -5 326 c 0
 35 509 130 633 381 708 c 1
 297 871 l 2
 280 903 273 938 273 972 c 0
 273 1118 415 1267 612 1267 c 0
 767 1267 854 1189 854 1080 c 0
 854 1065 852 1051 849 1034 c 0
 819 893 730 777 478 683 c 1
 735 232 l 1
 754 252 828 333 862 454 c 1x7c
676 178 m 1
 407 652 l 1
 181 590 100 472 73 339 c 0
 69 319 67 302 67 284 c 0
 67 156 168 49 343 49 c 0xbc
 456 49 557 67 676 178 c 1
370 897 m 2
 454 736 l 1
 682 816 745 900 774 1032 c 0
 776 1045 778 1055 778 1067 c 0
 778 1151 702 1194 600 1194 c 0
 469 1194 347 1099 347 981 c 0
 347 953 354 926 370 897 c 2
EndSplineSet
EndChar

StartChar: b
Encoding: 98 98 40
Width: 931
VWidth: 1986
Flags: HMW
HStem: -18 59<411 572 391 596> 0 21G<85 168 85 85> 765 60<513 644> 1172 55<170 322 159 417>
VStem: 791 70<373 550>
LayerCount: 2
Fore
SplineSet
417 1228 m 1xb8
 302 665 l 1
 359 769 462 826 563 826 c 0
 766 826 860 653 860 464 c 0
 860 235 721 -18 469 -18 c 0xb8
 350 -18 233 63 207 226 c 1
 168 0 l 1
 85 0 l 1x78
 322 1172 l 1
 159 1172 l 1
 170 1228 l 1
 417 1228 l 1xb8
567 765 m 0
 358 765 238 539 238 339 c 0
 238 183 311 42 471 42 c 0
 673 42 791 272 791 473 c 0
 791 627 720 765 567 765 c 0
EndSplineSet
EndChar

StartChar: f
Encoding: 102 102 41
Width: 566
VWidth: 1986
Flags: HMW
HStem: 0 60<-21 146 225 406 -34 146> 747 56<131 287 118 302 380 554> 1170 59<565 622>
VStem: -34 776
LayerCount: 2
Fore
SplineSet
742 1173 m 1
 697 1125 l 1
 673 1155 640 1170 604 1170 c 0
 529 1170 447 1114 431 1040 c 2
 380 803 l 1
 566 803 l 1
 554 747 l 1
 368 747 l 1
 225 60 l 1
 418 60 l 1
 406 0 l 1
 -34 0 l 1
 -21 60 l 1
 146 60 l 1
 287 747 l 1
 118 747 l 1
 131 803 l 1
 302 803 l 1
 350 1038 l 1
 372 1147 490 1230 604 1230 c 0
 654 1230 702 1214 742 1173 c 1
EndSplineSet
EndChar

StartChar: g
Encoding: 103 103 42
Width: 893
VWidth: 1986
Flags: HMW
HStem: -303 59<256 301> -18 59<289 417> 764 60<343 510 325 529>
VStem: 63 79<272 447 272 467>
LayerCount: 2
Fore
SplineSet
362 42 m 0
 566 42 682 267 682 467 c 0
 682 624 609 764 448 764 c 0
 237 764 143 543 143 351 c 0
 143 194 202 42 362 42 c 0
605 50 m 2
 629 150 l 1
 573 41 467 -18 365 -18 c 0
 212 -18 63 92 63 340 c 0
 63 596 200 825 450 825 c 0
 571 825 687 743 715 580 c 1
 752 803 l 1
 835 803 l 1
 682 48 l 2
 631 -205 491 -303 301 -303 c 0
 209 -303 123 -276 55 -218 c 1
 89 -169 l 1
 137 -213 212 -244 301 -244 c 0
 465 -244 552 -173 605 50 c 2
EndSplineSet
EndChar

StartChar: j
Encoding: 106 106 43
Width: 408
VWidth: 1986
Flags: HMW
HStem: -273 61<-176 -110 -189 -97> 746 57<117 243 105 334> 1102 115<349 373>
VStem: -189 614 298 127<1156 1163>
LayerCount: 2
Fore
SplineSet
262 1060 m 0xe0
 262 1102 291 1130 328 1130 c 0
 379 1130 401 1092 401 1060 c 0
 401 1027 375 994 330 994 c 0
 291 994 262 1024 262 1060 c 0xe0
76 -35 m 2
 243 746 l 1
 105 746 l 1
 117 803 l 1
 334 803 l 1
 160 -22 l 1
 133 -145 107 -273 -110 -273 c 2
 -189 -273 l 1xf0
 -176 -213 l 1
 -97 -213 l 2
 39 -213 52 -151 76 -35 c 2
EndSplineSet
EndChar

StartChar: k
Encoding: 107 107 44
Width: 881
VWidth: 1986
Flags: HMW
HStem: -9 59<610 667 610 673> 0 21G<81 164 81 81> 378 57<255 419 242 425> 766 60<745 826 776 826> 1188 56<178 330 166 424>
VStem: 81 744
LayerCount: 2
Fore
SplineSet
419 378 m 1xbc
 242 378 l 1
 164 0 l 1
 81 0 l 1x7c
 330 1188 l 1
 166 1188 l 1
 178 1244 l 1
 424 1244 l 1
 255 436 l 1
 425 436 l 1
 603 726 l 2
 654 810 687 825 753 826 c 2
 826 827 l 1
 814 766 l 1
 776 766 l 2
 715 766 703 729 676 687 c 2
 499 405 l 1
 565 153 l 2
 577 112 586 50 635 50 c 0
 701 50 732 132 757 207 c 1
 810 186 l 1
 777 63 721 -9 626 -9 c 0
 535 -9 506 57 484 139 c 2
 419 378 l 1xbc
EndSplineSet
EndChar

StartChar: m
Encoding: 109 109 45
Width: 1474
VWidth: 1986
Flags: HMW
HStem: -27 62<1201 1250 1201 1261> 0 21G<89 171 89 89 580 666 580 580> 747 56<90 236 77 326> 765 60<512 609 1006 1097>
VStem: 698 77 1084 80<90 111 90 128> 1168 81<600 655>
LayerCount: 2
Fore
SplineSet
755 455 m 2x5a
 666 0 l 1
 580 0 l 1
 688 534 l 2
 693 560 698 588 698 610 c 0
 698 699 659 765 558 765 c 0x5a
 458 765 303 668 261 455 c 2
 171 0 l 1
 89 0 l 1
 236 747 l 1
 77 747 l 1
 90 803 l 1
 326 803 l 1x6a
 285 649 l 1
 352 764 453 826 569 826 c 0
 698 826 765 747 775 638 c 1
 845 751 947 826 1064 826 c 0
 1192 826 1249 735 1249 609 c 0
 1249 584 1245 557 1240 529 c 2x5a
 1173 184 l 2
 1169 162 1164 138 1164 111 c 0
 1164 70 1177 35 1225 35 c 0
 1277 35 1315 116 1335 191 c 1
 1392 168 l 1
 1364 48 1306 -27 1217 -27 c 0
 1120 -27 1084 42 1084 118 c 0
 1084 139 1085 155 1089 174 c 2x9c
 1159 534 l 2
 1164 560 1168 588 1168 610 c 0
 1168 699 1140 765 1053 765 c 0
 953 765 796 668 755 455 c 2x5a
EndSplineSet
EndChar

StartChar: o
Encoding: 111 111 46
Width: 893
VWidth: 1986
Flags: HMW
HStem: -18 59<307 506 307 528> 765 60<373 567>
VStem: 57 79<257 436 257 450> 738 72<364 544>
LayerCount: 2
Fore
SplineSet
478 826 m 0
 706 826 809 653 809 464 c 0
 809 235 658 -18 398 -18 c 0
 160 -18 57 150 57 335 c 0
 57 566 218 826 478 826 c 0
478 765 m 0
 268 765 137 536 137 335 c 0
 137 180 216 42 399 42 c 0
 613 42 738 264 738 463 c 0
 738 622 656 765 478 765 c 0
EndSplineSet
EndChar

StartChar: p
Encoding: 112 112 47
Width: 922
VWidth: 1986
Flags: HMW
HStem: -319 59<-148 19 98 278 -161 19> -18 59<395 555 376 578> 748 55<71 222 58 317> 765 60<506 632>
VStem: 764 72<379 556>
LayerCount: 2
Fore
SplineSet
562 765 m 0xd8
 345 765 223 539 223 339 c 0
 223 183 295 42 457 42 c 0
 653 42 764 277 764 480 c 0
 764 632 701 765 562 765 c 0xd8
19 -260 m 1
 222 748 l 1
 58 748 l 1
 71 803 l 1
 317 803 l 1xe8
 286 665 l 1
 344 769 452 826 558 826 c 0
 747 826 837 657 837 471 c 0
 837 240 701 -18 455 -18 c 0
 334 -18 218 63 190 226 c 1
 98 -260 l 1
 291 -260 l 1
 278 -319 l 1
 -161 -319 l 1
 -148 -260 l 1
 19 -260 l 1
EndSplineSet
EndChar

StartChar: q
Encoding: 113 113 48
Width: 911
VWidth: 1986
Flags: HMW
HStem: -319 59<361 535 374 535 619 770> -18 59<273 405> 764 60<346 509 323 527>
VStem: 57 71<254 433 254 456>
LayerCount: 2
Fore
SplineSet
361 -319 m 1
 374 -260 l 1
 535 -260 l 1
 617 141 l 1
 560 38 455 -18 354 -18 c 0
 151 -18 57 154 57 342 c 0
 57 571 197 825 448 825 c 0
 569 825 685 743 713 580 c 1
 751 803 l 1
 833 803 l 1
 619 -260 l 1
 782 -260 l 1
 770 -319 l 1
 361 -319 l 1
350 42 m 0
 560 42 680 267 680 467 c 0
 680 624 607 764 446 764 c 0
 245 764 128 533 128 332 c 0
 128 178 197 42 350 42 c 0
EndSplineSet
EndChar

StartChar: s
Encoding: 115 115 49
Width: 669
VWidth: 1986
Flags: HMW
HStem: -18 59<227 309 227 322> 768 57<323 404>
VStem: 46 70<83 89> 132 79<534 663 534 679> 436 83<142 290> 484 76
LayerCount: 2
Fore
SplineSet
248 -18 m 0xf8
 154 -18 46 27 46 88 c 0
 46 90 46 92 60 196 c 1
 131 208 l 1
 117 109 116 107 116 105 c 0xf8
 116 62 188 42 267 42 c 0
 351 42 436 84 436 198 c 0xd8
 436 382 132 412 132 609 c 0
 132 748 241 826 372 826 c 0
 464 826 566 788 560 739 c 2
 547 633 l 1
 478 614 l 1
 490 731 l 2xd4
 491 742 438 768 369 768 c 0
 276 768 212 711 212 616 c 0xd8
 212 451 519 414 519 193 c 0
 519 58 395 -18 248 -18 c 0xf8
EndSplineSet
EndChar

StartChar: t
Encoding: 116 116 50
Width: 535
VWidth: 1986
Flags: HMW
HStem: -9 59<225 282 225 287> 747 56<68 240 82 227 320 472>
VStem: 107 77<105 139 105 148>
LayerCount: 2
Fore
SplineSet
68 747 m 1
 82 803 l 1
 240 803 l 1
 304 1107 l 1
 392 1141 l 1
 320 803 l 1
 488 803 l 1
 472 747 l 1
 310 747 l 1
 196 204 l 2
 190 180 184 151 184 125 c 0
 184 84 200 50 249 50 c 0
 314 50 346 132 370 207 c 1
 423 186 l 1
 391 63 334 -9 240 -9 c 0
 150 -9 107 55 107 139 c 0
 107 159 109 181 114 202 c 2
 227 747 l 1
 68 747 l 1
EndSplineSet
EndChar

StartChar: v
Encoding: 118 118 51
Width: 797
VWidth: 1986
Flags: HMW
HStem: -19 21G<275 296> 748 55<17 151 6 219> 796 20G<667 708 708 735>
VStem: 676 89<699 750 695 762>
LayerCount: 2
Fore
SplineSet
151 748 m 1xd0
 6 748 l 1
 17 803 l 1
 219 803 l 1xd0
 311 58 l 1
 562 444 l 2
 623 537 676 647 676 751 c 0
 676 774 673 794 667 815 c 1
 708 815 l 2
 760 815 765 763 765 738 c 0xb0
 765 654 726 564 616 403 c 2
 357 21 l 1
 336 -6 305 -19 287 -19 c 0
 263 -19 248 -2 245 23 c 2
 151 748 l 1xd0
EndSplineSet
EndChar

StartChar: w
Encoding: 119 119 52
Width: 1267
VWidth: 1986
Flags: HMW
HStem: -19 21G<240 259 760 780> 748 55<21 155 10 223> 796 20G<1133 1173 1173 1199>
VStem: 1140 89<699 750 695 762>
LayerCount: 2
Fore
SplineSet
155 748 m 1xd0
 10 748 l 1
 21 803 l 1
 223 803 l 1xd0
 274 58 l 1
 687 803 l 1
 736 803 l 1
 796 58 l 1
 1028 444 l 1
 1087 538 1140 647 1140 751 c 0
 1140 774 1138 794 1133 815 c 1
 1173 815 l 2
 1225 815 1231 763 1231 738 c 0xb0
 1231 654 1184 568 1081 403 c 2
 842 21 l 1
 820 -6 790 -19 771 -19 c 0
 748 -19 731 -2 729 23 c 2
 675 641 l 1
 320 21 l 1
 299 -6 268 -19 250 -19 c 0
 227 -19 210 -3 208 23 c 2
 155 748 l 1xd0
EndSplineSet
EndChar

StartChar: x
Encoding: 120 120 53
Width: 919
VWidth: 1986
Flags: HMW
HStem: -15 62<639 673 639 680> 746 66<190 218>
VStem: -36 890<50 744>
LayerCount: 2
Fore
SplineSet
352 694 m 2
 433 489 l 1
 586 722 l 2
 618 772 669 810 726 810 c 0
 766 810 809 792 853 744 c 1
 808 689 l 1
 781 725 754 744 725 744 c 0
 694 744 662 718 628 666 c 2
 461 415 l 1
 585 106 l 2
 602 64 626 48 652 48 c 0
 694 48 735 93 752 166 c 1
 811 154 l 1
 803 47 719 -15 643 -15 c 0
 592 -15 546 12 522 70 c 2
 413 343 l 1
 233 67 l 2
 200 17 144 -17 93 -17 c 0
 52 -17 8 2 -36 50 c 1
 10 105 l 1
 38 68 64 50 94 50 c 0
 124 50 158 69 192 121 c 2
 384 414 l 1
 290 650 l 1
 263 715 236 746 199 746 c 0
 172 746 147 735 117 709 c 1
 86 774 l 1
 131 801 172 812 209 812 c 0
 283 812 325 761 352 694 c 2
EndSplineSet
EndChar

StartChar: y
Encoding: 121 121 54
Width: 879
VWidth: 1986
Flags: HMW
HStem: -303 59<226 270> -19 60<272 372> 747 56<61 206 48 295>
VStem: 107 76<162 211>
LayerCount: 2
Fore
SplineSet
574 50 m 1
 600 150 l 1
 533 43 432 -19 315 -19 c 0
 169 -19 107 76 107 200 c 0
 107 223 108 249 114 277 c 2
 206 747 l 1
 48 747 l 1
 61 803 l 1
 295 803 l 1
 191 274 l 2
 187 252 183 230 183 205 c 0
 183 121 218 42 326 42 c 0
 431 42 590 141 632 352 c 2
 721 803 l 1
 802 803 l 1
 653 48 l 2
 603 -205 461 -303 270 -303 c 0
 177 -303 93 -276 24 -218 c 1
 60 -169 l 1
 108 -213 180 -244 270 -244 c 0
 433 -244 521 -173 574 50 c 1
EndSplineSet
EndChar

StartChar: z
Encoding: 122 122 55
Width: 754
VWidth: 1986
Flags: HMW
HStem: 0 56<136 517 136 558> 747 56<240 573 240 240>
VStem: 6 695
LayerCount: 2
Fore
SplineSet
25 0 m 2
 11 0 8 14 6 28 c 1
 573 747 l 1
 240 747 l 1
 157 621 l 1
 91 640 l 1
 182 803 l 1
 701 803 l 1
 696 784 685 763 673 748 c 0
 510 544 141 61 136 56 c 1
 517 56 l 1
 531 81 544 121 558 200 c 1
 616 178 l 1
 604 88 589 32 558 0 c 1
 25 0 l 2
EndSplineSet
EndChar

StartChar: ae
Encoding: 260 230 57
Width: 1480
VWidth: 1986
Flags: HMW
HStem: -18 59<296 454 958 1076> 408 54<783 1324 783 1384 773 1324> 765 60<373 548 354 560 1040 1174>
VStem: 59 82<241 415 241 444> 701 67<249 585> 1330 66<516 595>
LayerCount: 2
Fore
SplineSet
59 315 m 0
 59 571 227 826 481 826 c 0
 615 826 697 745 729 655 c 1
 758 803 l 1
 836 803 l 1
 794 645 l 1
 869 754 975 826 1105 826 c 0
 1284 826 1395 689 1395 516 c 0
 1395 488 1390 428 1384 408 c 1
 773 408 l 1
 768 389 767 367 767 347 c 0
 767 151 888 42 1029 42 c 0
 1124 42 1230 93 1314 202 c 1
 1362 165 l 1
 1277 42 1147 -18 1026 -18 c 0
 887 -18 750 76 705 249 c 1
 649 108 539 -18 367 -18 c 0
 173 -18 59 125 59 315 c 0
142 315 m 0
 142 166 215 42 376 42 c 0
 598 42 701 315 701 528 c 0
 701 643 632 765 489 765 c 0
 258 765 142 514 142 315 c 0
1107 765 m 0
 962 765 826 657 783 461 c 1
 1324 461 l 1
 1328 485 1330 505 1330 526 c 0
 1330 664 1241 765 1107 765 c 0
EndSplineSet
EndChar

StartChar: oe
Encoding: 261 339 58
Width: 1517
VWidth: 1986
Flags: HMW
HStem: -18 59<309 485 1000 1118> 408 54<824 1365 824 1426 815 1365> 765 60<368 560 350 574 1076 1216>
VStem: 59 82<277 447 277 471> 738 71<249 534> 1371 66<516 595>
LayerCount: 2
Fore
SplineSet
481 826 m 0
 639 826 751 728 795 592 c 1
 859 725 979 826 1146 826 c 0
 1324 826 1436 689 1436 516 c 0
 1436 488 1432 428 1426 408 c 1
 815 408 l 1
 815 408 808 371 808 347 c 0
 808 151 929 42 1070 42 c 0
 1165 42 1271 93 1354 202 c 1
 1403 165 l 1
 1319 42 1188 -18 1067 -18 c 0
 933 -18 806 58 757 206 c 1
 692 73 570 -18 401 -18 c 0
 176 -18 59 160 59 346 c 0
 59 597 220 826 481 826 c 0
481 765 m 0
 256 765 142 550 142 346 c 0
 142 210 216 42 402 42 c 0
 634 42 738 263 738 455 c 0
 738 612 666 765 481 765 c 0
1148 765 m 0
 1002 765 868 657 824 461 c 1
 1365 461 l 1
 1369 485 1371 505 1371 526 c 0
 1371 664 1282 765 1148 765 c 0
EndSplineSet
EndChar

StartChar: question
Encoding: 63 63 59
Width: 708
VWidth: 1986
Flags: HMW
HStem: -23 78<133 201 116 217> 932 336 1161 73<375 499>
VStem: -158 72 137 33 425 76
LayerCount: 2
Fore
SplineSet
150 1013 m 1xbc
 97 1049 l 1
 179 1178 311 1235 441 1235 c 0xbc
 592 1235 706 1144 706 997 c 0
 706 976 705 956 700 932 c 0
 634 617 343 702 232 292 c 1
 198 292 l 1
 293 738 567 671 622 932 c 0xdc
 627 951 628 967 628 984 c 0
 628 1080 569 1161 429 1161 c 0
 300 1161 204 1100 150 1013 c 1xbc
217 56 m 1
 201 -23 l 1
 116 -23 l 1
 133 56 l 1
 217 56 l 1
EndSplineSet
EndChar

StartChar: parenleft
Encoding: 40 40 60
Width: 526
VWidth: 1986
Flags: HMW
HStem: -92 21G -57 20G<347 347>
VStem: -136 170 -50 0
LayerCount: 2
Fore
SplineSet
81 622 m 0xc0
 145 920 342 1212 627 1280 c 1
 612 1211 l 1
 297 1105 145 717 145 422 c 0
 145 246 204 93 361 32 c 1
 347 -38 l 1
 147 14 59 203 59 425 c 0
 59 489 66 555 81 622 c 0xc0
EndSplineSet
EndChar

StartChar: bracketleft
Encoding: 91 91 61
Width: 477
VWidth: 1986
Flags: HMW
HStem: -564 25 -23 63<126 274> 1204 63<373 535 373 373> 1478 36
VStem: -81 2 -81 443 35 83
LayerCount: 2
Fore
SplineSet
305 1267 m 1xf0
 548 1267 l 1
 535 1204 l 1
 373 1204 l 1
 126 41 l 1
 287 41 l 1
 274 -23 l 1
 30 -23 l 1
 305 1267 l 1xf0
EndSplineSet
EndChar

StartChar: guillemotleft
Encoding: 262 171 62
Width: 778
VWidth: 1986
Flags: HMW
HStem: 651 20G<57 57 166 166 327 327 437 437>
VStem: -85 594
LayerCount: 2
Fore
SplineSet
327 670 m 1
 684 1052 l 1
 733 1052 l 1
 437 670 l 1
 567 284 l 1
 520 284 l 1
 327 670 l 1
57 670 m 1
 412 1052 l 1
 461 1052 l 1
 166 670 l 1
 298 284 l 1
 249 284 l 1
 57 670 l 1
EndSplineSet
EndChar

StartChar: guillemotright
Encoding: 263 187 63
Width: 775
VWidth: 1986
Flags: HMW
HStem: 651 20G<327 327 436 436 598 598 707 707>
VStem: -29 594
LayerCount: 2
Fore
SplineSet
242 1052 m 1
 436 670 l 1
 78 284 l 1
 30 284 l 1
 327 670 l 1
 193 1052 l 1
 242 1052 l 1
512 1052 m 1
 707 670 l 1
 348 284 l 1
 301 284 l 1
 598 670 l 1
 463 1052 l 1
 512 1052 l 1
EndSplineSet
EndChar

StartChar: section
Encoding: 167 167 64
Width: 941
VWidth: 1986
Flags: HMW
HStem: 0 53 577 283
VStem: 3 83 558 71 606 81
LayerCount: 2
Fore
SplineSet
809 576 m 0xe0
 793 504 739 447 669 411 c 1
 712 384 737 338 737 288 c 0
 737 171 622 38 355 38 c 0
 243 38 141 66 94 126 c 1
 79 52 l 1
 10 52 l 1
 59 286 l 1
 129 286 l 1
 114 221 l 1
 137 145 256 105 375 105 c 0
 563 105 656 197 656 277 c 0
 656 469 130 336 130 575 c 0
 130 673 195 751 276 790 c 1
 229 816 200 851 200 908 c 0
 200 1078 382 1151 547 1151 c 0
 644 1151 738 1130 788 1074 c 1
 800 1135 l 1
 870 1135 l 1
 822 904 l 1
 751 904 l 1
 769 993 l 1
 735 1053 645 1084 552 1084 c 0
 419 1084 286 1039 286 929 c 0
 286 738 814 882 814 625 c 0
 814 610 813 594 809 576 c 0xe0
728 574 m 0
 730 585 731 594 731 602 c 0
 731 742 464 722 336 764 c 1
 284 745 214 681 214 595 c 0
 214 469 453 484 620 444 c 1
 675 466 715 514 728 574 c 0
EndSplineSet
EndChar

StartChar: one
Encoding: 49 49 65
Width: 541
VWidth: 1986
Flags: HMW
HStem: 0 79 1162 83
VStem: -58 251 127 66
LayerCount: 2
Fore
SplineSet
205 62 m 1xc0
 376 62 l 1
 363 0 l 1
 -68 0 l 1
 -55 62 l 1
 124 62 l 1
 355 1157 l 1
 190 1129 l 1
 190 1197 l 1
 457 1245 l 1
 205 62 l 1xc0
EndSplineSet
EndChar

StartChar: two
Encoding: 50 50 66
Width: 961
VWidth: 1986
Flags: HMW
HStem: 0 79<71 659> 786 481<148 715 148 715> 1194 73<502 678>
VStem: -19 86 634 86 659 78
LayerCount: 2
Fore
SplineSet
659 0 m 1xd4
 -57 0 l 1
 -41 81 l 1
 98 194 776 665 829 919 c 0
 835 946 837 971 837 995 c 0
 837 1123 752 1194 604 1194 c 0xb8
 400 1194 233 1046 233 811 c 0
 233 802 233 795 234 786 c 1
 148 786 l 1
 148 1085 365 1267 622 1267 c 0
 807 1267 926 1172 926 1006 c 0
 926 979 921 950 915 919 c 0
 857 644 245 218 71 79 c 1
 676 79 l 1
 659 0 l 1xd4
EndSplineSet
EndChar

StartChar: three
Encoding: 51 51 67
Width: 939
VWidth: 1986
Flags: HMW
HStem: -22 396 623 80<297 318 278 366> 920 348 1194 73<472 601>
VStem: -141 78 148 546 608 85
LayerCount: 2
Fore
SplineSet
366 703 m 2xd8
 542 703 800 727 800 990 c 0
 800 1127 670 1194 533 1194 c 0
 404 1194 273 1158 186 1037 c 1
 121 1067 l 1
 229 1212 394 1268 550 1268 c 0
 721 1268 888 1175 888 1002 c 0
 888 832 756 709 604 665 c 1
 721 637 787 545 787 426 c 0
 787 158 506 -19 275 -19 c 0
 106 -19 -41 61 -85 218 c 1
 -11 259 l 1
 28 119 147 50 300 50 c 0
 496 50 702 205 702 424 c 0
 702 612 497 623 318 623 c 2
 278 623 l 1
 297 703 l 1
 366 703 l 2xd8
EndSplineSet
EndChar

StartChar: four
Encoding: 52 52 68
Width: 831
VWidth: 1986
Flags: HMW
HStem: 0 79 334 111 1227 20G<582 698 698 698>
VStem: 351 74
LayerCount: 2
Fore
SplineSet
-79 383 m 1
 -77 446 l 1
 582 1245 l 1
 698 1245 l 1
 527 446 l 1
 786 446 l 1
 773 383 l 1
 514 383 l 1
 446 62 l 1
 609 62 l 1
 596 0 l 1
 188 0 l 1
 203 62 l 1
 364 62 l 1
 432 383 l 1
 -79 383 l 1
17 446 m 1
 446 446 l 1
 599 1167 l 1
 17 446 l 1
EndSplineSet
EndChar

StartChar: five
Encoding: 53 53 69
Width: 994
VWidth: 1986
Flags: HMW
HStem: 665 69 735 511<511 652> 851 323
VStem: 86 255
LayerCount: 2
Fore
SplineSet
351 53 m 0x30
 589 53 812 186 812 479 c 0
 812 622 733 735 571 735 c 0x50
 450 735 321 722 200 665 c 1x90
 152 692 l 1
 270 1245 l 1
 925 1245 l 1x50
 908 1175 l 1
 336 1175 l 1
 237 754 l 1
 337 795 475 803 575 803 c 0
 784 803 897 676 897 493 c 0
 897 150 615 -18 338 -18 c 0
 180 -18 20 32 -50 164 c 1
 10 218 l 1
 64 96 210 53 351 53 c 0x30
EndSplineSet
EndChar

StartChar: six
Encoding: 54 54 70
Width: 847
VWidth: 1986
Flags: HMW
HStem: -23 72<206 403 206 423> 667 102 1241 78 1301 20
VStem: 29 576 608 78
LayerCount: 2
Fore
SplineSet
296 50 m 0xcc
 528 50 689 228 689 432 c 0
 689 586 568 663 431 663 c 0
 263 663 38 530 38 279 c 0
 38 154 116 50 296 50 c 0xcc
682 1374 m 1
 740 1327 l 1
 249 685 l 1
 320 716 393 734 456 734 c 0
 640 734 774 611 774 446 c 0
 774 217 564 -23 280 -23 c 0
 106 -23 -42 96 -42 271 c 0
 -42 446 169 691 178 703 c 2
 682 1374 l 1
EndSplineSet
EndChar

StartChar: seven
Encoding: 55 55 71
Width: 873
VWidth: 1986
Flags: HMW
HStem: 0 79 963 282 1161 84
VStem: -67 115 245 82
LayerCount: 2
Fore
SplineSet
888 1175 m 1xb8
 254 1175 l 1
 201 925 l 1
 124 925 l 1
 192 1245 l 1
 992 1245 l 1
 975 1169 l 1
 557 800 403 471 314 52 c 1
 497 52 l 1
 483 -11 l 1
 51 -11 l 1
 65 52 l 1
 232 52 l 1
 297 365 440 768 888 1175 c 1xb8
EndSplineSet
EndChar

StartChar: eight
Encoding: 56 56 72
Width: 1012
VWidth: 1986
Flags: HMW
HStem: 49 893 602 339
VStem: -46 415 688 82
LayerCount: 2
Fore
SplineSet
860 394 m 0x30
 860 108 582 -24 363 -24 c 0
 177 -24 14 63 14 247 c 0
 14 437 166 611 363 650 c 1
 242 690 190 782 190 881 c 0
 190 1060 362 1267 640 1267 c 0
 852 1267 951 1146 951 1008 c 0
 951 872 838 697 652 650 c 1
 784 622 860 521 860 394 c 0x30
498 602 m 0x70
 247 602 101 419 101 266 c 0
 101 120 233 50 379 50 c 0
 553 50 775 160 775 377 c 0
 775 496 687 602 498 602 c 0x70
623 1193 m 0
 403 1193 275 1037 275 893 c 0
 275 785 350 686 515 686 c 0
 732 686 863 856 863 996 c 0
 863 1102 791 1193 623 1193 c 0
EndSplineSet
EndChar

StartChar: nine
Encoding: 57 57 73
Width: 928
VWidth: 1986
Flags: HMW
HStem: 31 19 31 77 582 101 1194 73<484 680>
VStem: -64 77 17 576
LayerCount: 2
Fore
SplineSet
591 1194 m 0x3c
 359 1194 197 1018 197 813 c 0
 197 659 317 580 455 580 c 0
 621 580 848 712 848 964 c 0
 848 1089 769 1194 591 1194 c 0x3c
204 -130 m 1
 146 -83 l 1
 638 558 l 1
 565 526 494 510 429 510 c 0
 247 510 112 634 112 800 c 0
 112 1027 321 1267 606 1267 c 0
 779 1267 927 1146 927 971 c 0
 927 797 715 554 706 541 c 2
 204 -130 l 1
EndSplineSet
EndChar

StartChar: zero
Encoding: 48 48 74
Width: 1100
VWidth: 1986
Flags: HMW
HStem: 49 573 622 571
VStem: 413 0
LayerCount: 2
Fore
SplineSet
409 -23 m 0xa0
 164 -23 64 136 64 375 c 0
 64 449 74 534 93 622 c 0
 171 982 361 1267 682 1267 c 0
 926 1267 1026 1103 1026 865 c 0
 1026 792 1015 708 997 622 c 0
 919 254 730 -23 409 -23 c 0xa0
666 1193 m 0x60
 404 1193 252 977 176 622 c 0
 155 522 146 436 146 362 c 0
 146 151 236 49 423 49 c 0xa0
 678 49 831 236 912 622 c 0
 933 715 943 799 943 872 c 0
 943 1076 859 1193 666 1193 c 0x60
EndSplineSet
EndChar

StartChar: colon
Encoding: 58 58 75
Width: 470
VWidth: 1986
Flags: HMW
HStem: -388 21G -194 175 708 171
VStem: -12 211 112 87
LayerCount: 2
Fore
SplineSet
227 823 m 1xe0
 345 823 l 1
 319 702 l 1
 200 702 l 1
 227 823 l 1xe0
120 316 m 1
 237 316 l 1
 211 196 l 1
 93 196 l 1
 120 316 l 1
EndSplineSet
EndChar

StartChar: semicolon
Encoding: 59 59 76
Width: 477
VWidth: 1986
Flags: HMW
HStem: -388 21G -194 175 708 171
VStem: 13 211 136 87
LayerCount: 2
Fore
SplineSet
139 318 m 1xe0
 267 318 l 1
 241 195 l 2
 219 96 168 19 66 19 c 1
 74 64 l 1
 147 87 156 113 174 198 c 1
 114 198 l 1
 139 318 l 1xe0
251 823 m 1
 368 823 l 1
 343 702 l 1
 224 702 l 1
 251 823 l 1
EndSplineSet
EndChar

StartChar: hyphen
Encoding: 45 45 77
Width: 601
VWidth: 1986
Flags: HMW
HStem: 934 82<202 477 165 505>
VStem: 165 340<934 1016>
LayerCount: 2
Fore
SplineSet
505 1016 m 1
 477 934 l 1
 165 934 l 1
 192 1016 l 29
 505 1016 l 1
EndSplineSet
EndChar

StartChar: C
Encoding: 67 67 78
Width: 1123
VWidth: 1986
Flags: HMW
HStem: -20 66<471 704 471 706> 1228 65<550 795 532 818> 1252 20G<1081 1148 1148 1148>
VStem: 89 84<407 709 407 739>
LayerCount: 2
Fore
SplineSet
1108 976 m 1xd0
 1055 962 l 1
 1024 1131 903 1228 733 1228 c 0
 369 1228 173 872 173 545 c 0
 173 268 320 47 622 47 c 0
 786 47 941 145 1017 283 c 1
 1082 246 l 1
 978 74 809 -20 604 -20 c 0
 266 -20 89 244 89 554 c 0
 89 923 333 1292 731 1292 c 0xd0
 859 1292 993 1239 1059 1124 c 1
 1081 1272 l 1
 1148 1272 l 1xb0
 1108 976 l 1xd0
EndSplineSet
EndChar

StartChar: d
Encoding: 100 100 79
Width: 994
VWidth: 1986
Flags: HMW
HStem: -18 59<262 395> -9 59<726 779 726 788> 764 60<341 499 317 517> 1167 55<661 813 650 908>
VStem: 48 70<247 424 247 449> 613 78<107 129>
LayerCount: 2
Fore
SplineSet
341 42 m 0xbc
 551 42 670 267 670 467 c 0
 670 624 598 764 437 764 c 0
 246 764 118 526 118 322 c 0
 118 172 184 42 341 42 c 0xbc
813 1167 m 1
 650 1167 l 1
 661 1223 l 1
 908 1223 l 1
 698 175 l 2
 695 160 692 144 692 126 c 0
 692 87 703 50 748 50 c 0
 811 50 848 131 870 204 c 1
 926 182 l 1
 900 61 831 -9 744 -9 c 0x7c
 646 -9 613 52 613 125 c 0
 613 132 613 142 614 149 c 1
 557 46 446 -18 345 -18 c 0
 138 -18 48 149 48 334 c 0
 48 565 196 825 439 825 c 0
 560 825 659 759 698 606 c 1
 813 1167 l 1
EndSplineSet
EndChar

StartChar: exclam
Encoding: 33 33 80
Width: 430
VWidth: 1986
Flags: HMW
HStem: 0 183 1273 20G
VStem: -51 135
LayerCount: 2
Fore
SplineSet
166 347 m 1
 134 347 l 1
 204 816 l 1
 281 1182 l 1
 371 1182 l 1
 293 816 l 1
 166 347 l 1
24 0 m 1
 46 107 l 1
 152 107 l 1
 134 0 l 1
 24 0 l 1
EndSplineSet
EndChar

StartChar: quotedbl
Encoding: 34 34 81
Width: 582
VWidth: 1986
Flags: HMW
HStem: 912 380
LayerCount: 2
Fore
SplineSet
527 1245 m 1
 412 861 l 1
 379 861 l 1
 435 1245 l 1
 527 1245 l 1
332 1245 m 1
 218 861 l 1
 184 861 l 1
 239 1245 l 1
 332 1245 l 1
EndSplineSet
EndChar

StartChar: numbersign
Encoding: 35 35 82
Width: 983
VWidth: 1986
Flags: HMW
HStem: 0 79 24 443 394 73 826 76 1162 83
VStem: -230 254
LayerCount: 2
Fore
SplineSet
116 889 m 1x5c
 293 889 l 1
 398 1245 l 1
 476 1245 l 1
 371 889 l 1
 741 889 l 1
 845 1245 l 1
 925 1245 l 1
 820 889 l 1
 1010 889 l 1
 992 829 l 1
 802 829 l 1
 694 461 l 1
 883 461 l 1
 864 402 l 1
 675 402 l 1
 558 0 l 1
 477 0 l 1
 597 402 l 1
 227 402 l 1
 110 0 l 1
 29 0 l 1xbc
 148 402 l 1
 -30 402 l 1
 -11 461 l 1
 166 461 l 1
 273 829 l 1
 98 829 l 1
 116 889 l 1x5c
354 829 m 1
 247 461 l 1
 614 461 l 1
 722 829 l 1
 354 829 l 1
EndSplineSet
EndChar

StartChar: dollar
Encoding: 36 36 83
Width: 1115
VWidth: 1986
Flags: HMW
HStem: -23 74<475 619 475 619> -23 442<87 478 87 475> 0 24 78 21G 400 20G<87 167 167 167> 702 21G 907 360<670 1025 670 945> 1193 73<553 688 670 672>
VStem: -11 92 111 407 814 19
LayerCount: 2
Fore
SplineSet
478 -23 m 2x46e0
 475 -23 l 1x56e0
 439 -192 l 1
 378 -192 l 1
 414 -20 l 1
 292 -7 189 42 101 113 c 1
 78 0 l 1
 -2 0 l 1x3ee0
 87 419 l 1
 167 419 l 1
 121 198 l 1
 211 117 307 71 432 57 c 1
 546 600 l 1
 318 624 177 675 177 846 c 0
 177 1121 427 1267 670 1267 c 2
 688 1267 l 1
 725 1434 l 1
 785 1434 l 1
 747 1261 l 1
 838 1251 922 1222 1001 1174 c 1
 1017 1245 l 1
 1096 1245 l 1
 1025 907 l 1
 945 907 l 1
 984 1091 l 1
 937 1127 854 1175 733 1189 c 1
 621 669 l 1
 817 645 982 592 982 405 c 0
 982 381 978 351 971 319 c 0
 943 186 795 -23 478 -23 c 2x46e0
524 52 m 0x9de0
 731 52 890 204 890 392 c 0
 890 526 781 568 605 593 c 1
 491 53 l 1
 501 52 512 52 524 52 c 0x9de0
668 1193 m 2
 423 1193 268 1061 268 856 c 0
 268 722 390 695 562 676 c 1
 672 1193 l 1
 668 1193 l 2
EndSplineSet
EndChar

StartChar: percent
Encoding: 37 37 84
Width: 1590
VWidth: 1986
Flags: HMW
HStem: -689 73 -184 98 -48 21G<161 161> -10 99 175 98 582 97 848 98 1132 102 1303 20G<1522 1522>
VStem: -60 73 -29 101 327 114 419 97 509 74 788 74 798 112 986 100 1177 113 1357 74 1434 94
LayerCount: 2
Fore
SplineSet
125 0 m 1xff80f0
 1522 1323 l 1
 1554 1282 l 1
 161 -48 l 1
 125 0 l 1xff80f0
412 712 m 0
 546 712 717 819 717 1018 c 0
 717 1140 622 1203 515 1203 c 0
 381 1203 210 1098 210 899 c 0
 210 775 304 712 412 712 c 0
794 1032 m 0
 794 782 570 647 398 647 c 0
 256 647 133 728 133 886 c 0
 133 1135 355 1267 528 1267 c 0
 669 1267 794 1189 794 1032 c 0
1117 41 m 0
 1249 41 1425 146 1425 345 c 0
 1425 467 1329 532 1221 532 c 0
 1087 532 916 425 916 225 c 0
 916 102 1009 41 1117 41 c 0
1500 358 m 0
 1500 109 1274 -26 1103 -26 c 0
 961 -26 841 56 841 213 c 0
 841 463 1062 595 1236 595 c 0
 1377 595 1500 515 1500 358 c 0
EndSplineSet
EndChar

StartChar: hungarumlaut
Encoding: 189 733 85
Width: 636
VWidth: 1986
Flags: HMW
HStem: 952 233 994 251<167 408 167 408 379 408 280 411 379 379>
LayerCount: 2
Fore
SplineSet
411 994 m 1x40
 379 994 l 1
 493 1245 l 1
 619 1245 l 1
 411 994 l 1x40
199 994 m 1
 167 994 l 1
 280 1245 l 1
 408 1245 l 1
 199 994 l 1
EndSplineSet
EndChar

StartChar: ogonek
Encoding: 178 731 86
Width: 522
VWidth: 1986
Flags: HMW
HStem: -366 83 -20 20G<236 289 289 289>
VStem: 90 108
LayerCount: 2
Fore
SplineSet
236 0 m 1
 289 0 l 1
 200 -69 155 -147 155 -205 c 0
 155 -260 200 -281 255 -281 c 0
 292 -281 331 -271 365 -258 c 1
 353 -322 l 1
 303 -351 245 -366 195 -366 c 0
 120 -366 59 -334 59 -261 c 0
 59 -180 137 -63 236 0 c 1
EndSplineSet
EndChar

StartChar: caron
Encoding: 183 711 87
Width: 594
VWidth: 1986
Flags: HMW
HStem: 931 275<262 264 180 358 262 262> 1110 21G 1399 20G
LayerCount: 2
Fore
SplineSet
180 1206 m 1xa0
 264 1206 l 1
 321 980 l 1
 474 1206 l 1
 564 1206 l 1
 358 931 l 1
 262 931 l 1
 180 1206 l 1xa0
EndSplineSet
EndChar

StartChar: asterisk
Encoding: 42 42 88
Width: 913
VWidth: 1986
Flags: HMW
HStem: 948 500 1091 21G
VStem: 975 56
LayerCount: 2
Fore
SplineSet
514 1240 m 1x20
 616 1240 l 1
 496 826 l 1
 910 1001 l 1
 923 914 l 1
 498 793 l 1
 703 476 l 1
 613 418 l 1
 464 768 l 1
 168 418 l 1
 104 476 l 1
 443 793 l 1
 68 914 l 1
 118 1001 l 1
 459 826 l 1
 514 1240 l 1x20
EndSplineSet
EndChar

StartChar: plus
Encoding: 43 43 89
Width: 775
VWidth: 1986
Flags: HMW
HStem: 140 21G<249 313 249 249> 540 64<-13 334 -26 348 412 754 -13 397> 972 20G<430 492 492 492>
VStem: 220 62
LayerCount: 2
Fore
SplineSet
492 992 m 1
 412 604 l 1
 769 604 l 1
 754 540 l 1
 397 540 l 1
 313 140 l 1
 249 140 l 1
 334 540 l 1
 -26 540 l 1
 -13 604 l 1
 348 604 l 1
 430 992 l 1
 492 992 l 1
EndSplineSet
EndChar

StartChar: comma
Encoding: 44 44 90
Width: 448
VWidth: 1986
Flags: HMW
HStem: -180 21G -4 21G<105 167 105 105> 97 20G<131 257 257 257>
VStem: 106 128 168 66
LayerCount: 2
Fore
SplineSet
131 117 m 1xe0
 257 117 l 1
 232 -6 l 1
 209 -105 159 -182 57 -182 c 1
 67 -138 l 1
 139 -114 149 -89 167 -4 c 1
 105 -4 l 1
 131 117 l 1xe0
EndSplineSet
EndChar

StartChar: quotesingle
Encoding: 39 39 91
Width: 387
VWidth: 1986
Flags: HMW
HStem: 861 384<184 332 184 332>
LayerCount: 2
Fore
SplineSet
332 1245 m 1
 218 861 l 1
 184 861 l 1
 239 1245 l 1
 332 1245 l 1
EndSplineSet
EndChar

StartChar: period
Encoding: 46 46 92
Width: 435
VWidth: 1986
Flags: HMW
HStem: 0 121<121 214 95 238>
VStem: 95 119<0 0>
LayerCount: 2
Fore
SplineSet
121 121 m 1
 238 121 l 1
 214 0 l 1
 95 0 l 1
 121 121 l 1
EndSplineSet
EndChar

StartChar: slash
Encoding: 47 47 93
Width: 520
VWidth: 1986
Flags: HMW
HStem: -23 21G<-110 -110 -110 -34> 1247 20G<540 611 611 611>
LayerCount: 2
Fore
SplineSet
-110 -23 m 1
 540 1267 l 1
 611 1267 l 1
 -34 -23 l 1
 -110 -23 l 1
EndSplineSet
EndChar

StartChar: less
Encoding: 60 60 94
Width: 808
VWidth: 1986
Flags: HMW
HStem: -23 21G<622 622> 1247 20G<896 896>
LayerCount: 2
Fore
SplineSet
622 -23 m 1
 -97 618 l 1
 896 1267 l 1
 875 1173 l 1
 18 618 l 1
 642 68 l 1
 622 -23 l 1
EndSplineSet
EndChar

StartChar: equal
Encoding: 61 61 95
Width: 827
VWidth: 1986
Flags: HMW
HStem: 1102 78 1600 78
LayerCount: 2
Fore
SplineSet
697 703 m 1
 684 641 l 1
 169 641 l 1
 183 703 l 1
 697 703 l 1
639 423 m 1
 624 359 l 1
 110 359 l 1
 125 423 l 1
 639 423 l 1
EndSplineSet
EndChar

StartChar: greater
Encoding: 62 62 96
Width: 801
VWidth: 1986
Flags: HMW
HStem: -23 21G<-89 -89> 1247 20G<185 185>
LayerCount: 2
Fore
SplineSet
902 618 m 1
 -89 -23 l 1
 -69 68 l 1
 788 618 l 1
 164 1173 l 1
 185 1267 l 1
 902 618 l 1
EndSplineSet
EndChar

StartChar: at
Encoding: 64 64 97
Width: 1421
VWidth: 1986
Flags: HMW
HStem: -4 191 27 680 563 642 971 22
VStem: 10 557 784 104
LayerCount: 2
Fore
SplineSet
1376 864 m 0x4c
 1376 549 1098 254 881 254 c 0
 846 254 809 280 809 343 c 0
 809 365 812 398 826 428 c 1
 715 302 613 254 524 254 c 0
 418 254 326 330 326 476 c 0
 326 695 510 993 789 993 c 0
 872 993 960 953 989 848 c 1
 1040 971 l 1
 1127 971 l 1x5c
 883 406 l 2
 879 395 875 386 875 373 c 0
 875 346 895 328 922 328 c 0
 1010 328 1292 529 1292 838 c 0
 1292 1039 1151 1205 867 1205 c 0x2c
 488 1205 119 892 119 447 c 0
 119 189 294 27 631 27 c 0
 796 27 928 62 1048 135 c 1
 1075 84 l 1
 947 1 806 -44 616 -44 c 0
 204 -44 30 184 30 451 c 0
 30 821 372 1277 887 1277 c 0
 1240 1277 1376 1086 1376 864 c 0x4c
573 320 m 0
 716 320 922 553 922 764 c 0
 922 860 862 922 762 922 c 0
 571 922 422 661 422 490 c 0
 422 394 468 320 573 320 c 0
EndSplineSet
EndChar

StartChar: backslash
Encoding: 92 92 98
Width: 526
VWidth: 1986
Flags: HMW
HStem: -17 21G 1270 20G
LayerCount: 2
Fore
SplineSet
253 1267 m 1
 355 -23 l 1
 277 -23 l 1
 180 1267 l 1
 253 1267 l 1
EndSplineSet
EndChar

StartChar: bracketright
Encoding: 93 93 99
Width: 483
VWidth: 1986
Flags: HMW
HStem: -564 25 1478 36
VStem: -358 442 78 5
LayerCount: 2
Fore
SplineSet
199 1267 m 1xc0
 444 1267 l 1
 170 -23 l 1
 -73 -23 l 1
 -61 41 l 1
 102 41 l 1
 349 1204 l 1
 186 1204 l 1
 199 1267 l 1xc0
EndSplineSet
EndChar

StartChar: asciicircum
Encoding: 94 94 100
Width: 883
VWidth: 1986
Flags: HMW
HStem: 769 21G 1247 20G<514 601 601 601>
LayerCount: 2
Fore
SplineSet
601 1267 m 1
 828 768 l 1
 754 768 l 1
 544 1197 l 1
 135 768 l 1
 59 768 l 1
 514 1267 l 1
 601 1267 l 1
EndSplineSet
EndChar

StartChar: underscore
Encoding: 95 95 101
Width: 1040
VWidth: 1986
Flags: HMW
HStem: -393 168 -110 162
LayerCount: 2
Fore
SplineSet
850 0 m 1
 837 -62 l 1
 97 -62 l 1
 113 0 l 1
 850 0 l 1
EndSplineSet
EndChar

StartChar: grave
Encoding: 96 96 102
Width: 396
VWidth: 1986
Flags: HMW
HStem: 994 251<266 298 266 266>
LayerCount: 2
Fore
SplineSet
298 994 m 1
 266 994 l 1
 161 1245 l 1
 298 1245 l 1
 298 994 l 1
EndSplineSet
EndChar

StartChar: braceleft
Encoding: 123 123 103
Width: 507
VWidth: 1986
Flags: HMW
HStem: -23 0<253 253 319 319> 579 43 1212 55<527 581>
VStem: 11 248 11 314 259 0
LayerCount: 2
Fore
SplineSet
236 493 m 0xe0
 236 416 181 232 181 123 c 0
 181 47 224 32 330 32 c 1
 319 -23 l 1
 253 -23 l 2
 132 -23 96 30 96 114 c 0
 96 212 159 421 159 494 c 0
 159 556 128 579 36 579 c 1
 52 663 l 1
 200 663 217 726 257 917 c 0
 300 1121 324 1267 527 1267 c 2
 592 1267 l 1
 581 1212 l 1
 438 1212 400 1185 364 1013 c 0
 312 763 269 629 141 622 c 1
 212 616 236 573 236 493 c 0xe0
EndSplineSet
EndChar

StartChar: bar
Encoding: 124 124 104
Width: 410
VWidth: 1986
Flags: HMW
HStem: -23 21G<30 30 30 98> 1247 20G<304 372 372 372>
VStem: 35 69
LayerCount: 2
Fore
SplineSet
30 -23 m 1
 304 1267 l 1
 372 1267 l 1
 98 -23 l 1
 30 -23 l 1
EndSplineSet
EndChar

StartChar: braceright
Encoding: 125 125 105
Width: 511
VWidth: 1986
Flags: HMW
HStem: -339 118 290 121 926 111
VStem: -150 297 9 138
LayerCount: 2
Fore
SplineSet
272 751 m 0xe8
 272 826 326 1012 326 1121 c 0
 326 1198 284 1212 178 1212 c 1
 190 1267 l 1
 256 1267 l 2
 377 1267 412 1215 412 1130 c 0
 412 1032 352 823 352 750 c 0
 352 688 380 663 472 663 c 1
 456 579 l 1
 308 579 294 518 253 327 c 0
 209 122 184 -23 -19 -23 c 2
 -83 -23 l 1
 -73 32 l 1
 71 32 110 59 147 231 c 0
 200 481 241 613 366 622 c 1
 298 626 272 670 272 751 c 0xe8
EndSplineSet
EndChar

StartChar: asciitilde
Encoding: 126 126 106
Width: 810
VWidth: 1986
Flags: HMW
HStem: 486 113 652 91
LayerCount: 2
Fore
SplineSet
196 1039 m 1
 157 1039 l 1
 187 1129 247 1168 310 1168 c 0
 428 1168 516 1121 604 1121 c 0
 642 1121 673 1137 689 1164 c 1
 727 1164 l 1
 699 1082 645 1032 572 1032 c 0
 443 1032 356 1079 264 1079 c 0
 229 1079 210 1066 196 1039 c 1
EndSplineSet
EndChar

StartChar: Euro
Encoding: 264 8364 107
Width: 1221
VWidth: 1986
Flags: HMW
HStem: -22 101 49 164 532 115 736 112 1003 264 1201 78 1700 78
VStem: -14 83 963 75
LayerCount: 2
Fore
SplineSet
885 801 m 1x7780
 872 740 l 1
 238 740 l 1
 208 668 194 587 188 522 c 1
 826 522 l 1
 812 459 l 1
 186 459 l 1
 190 192 367 48 607 48 c 0
 736 48 882 90 1029 175 c 1
 1049 111 l 1
 896 23 735 -22 588 -22 c 0xb780
 309 -22 99 136 99 459 c 1
 -87 459 l 1
 -74 522 l 1
 102 522 l 1
 111 588 122 667 151 740 c 1
 -28 740 l 1
 -14 801 l 1
 177 801 l 1
 310 1079 596 1267 852 1267 c 0
 983 1267 1107 1219 1199 1109 c 1
 1229 1248 l 1
 1304 1248 l 1
 1255 1017 l 1
 1189 1003 l 1x7b80
 1098 1133 972 1189 838 1189 c 0
 619 1189 384 1034 264 801 c 1
 885 801 l 1x7780
EndSplineSet
EndChar

StartChar: quotesinglbase
Encoding: 265 8218 108
Width: 448
VWidth: 1986
Flags: HMW
HStem: -270 545 34 21G
VStem: 109 298
LayerCount: 2
Fore
SplineSet
131 117 m 1x20
 257 117 l 1
 232 -6 l 1
 209 -105 159 -182 57 -182 c 1
 67 -138 l 1
 139 -114 149 -89 167 -4 c 1
 105 -4 l 1
 131 117 l 1x20
EndSplineSet
EndChar

StartChar: florin
Encoding: 266 402 109
Width: 685
VWidth: 1986
Flags: HMW
HStem: 0 60 787 57<240 368 213 396 476 653 240 448> 1053 214 1169 98
VStem: -170 429 285 80 633 27
LayerCount: 2
Fore
SplineSet
851 1231 m 1xce
 826 1176 l 1
 798 1188 766 1194 733 1194 c 0
 683 1194 634 1167 597 1091 c 2
 476 844 l 1
 680 844 l 1
 653 787 l 1
 448 787 l 1
 93 60 l 2
 21 -88 -84 -87 -176 -87 c 1
 -147 -24 l 1
 -94 -24 -27 -23 15 60 c 2
 368 787 l 1
 213 787 l 1
 240 844 l 1
 396 844 l 1
 517 1089 l 1
 566 1195 647 1255 742 1255 c 0
 776 1255 816 1249 851 1231 c 1xce
EndSplineSet
EndChar

StartChar: quotedblbase
Encoding: 267 8222 110
Width: 700
VWidth: 1986
Flags: HMW
HStem: -270 545 30 245
VStem: -218 296 359 298
LayerCount: 2
Fore
SplineSet
131 117 m 1x30
 257 117 l 1
 232 -6 l 1
 209 -105 159 -182 57 -182 c 1
 67 -138 l 1
 139 -114 149 -89 167 -4 c 1
 105 -4 l 1
 131 117 l 1x30
384 117 m 1
 510 117 l 1
 485 -6 l 1
 462 -105 412 -182 311 -182 c 1
 321 -138 l 1
 392 -114 401 -89 420 -4 c 1
 358 -4 l 1
 384 117 l 1
EndSplineSet
EndChar

StartChar: ellipsis
Encoding: 268 8230 111
Width: 961
VWidth: 1986
Flags: HMW
HStem: 0 121<121 214 95 238 383 476 646 739>
VStem: 95 119<0 0> 359 118<0 0> 622 117<0 0>
LayerCount: 2
Fore
SplineSet
121 121 m 1
 238 121 l 1
 214 0 l 1
 95 0 l 1
 121 121 l 1
383 121 m 1
 502 121 l 1
 476 0 l 1
 359 0 l 1
 383 121 l 1
646 121 m 1
 764 121 l 1
 739 0 l 1
 622 0 l 1
 646 121 l 1
EndSplineSet
EndChar

StartChar: dagger
Encoding: 269 8224 112
Width: 537
VWidth: 1986
Flags: HMW
HStem: 2 1220<112 446 112 446>
VStem: 86 91 112 41<2 2>
LayerCount: 2
Fore
SplineSet
565 870 m 1xc0
 343 896 l 1
 336 579 224 343 152 2 c 1
 112 2 l 1xa0
 185 347 173 577 302 896 c 1
 64 870 l 1
 80 949 l 1
 310 932 l 1
 339 1222 l 1
 446 1222 l 1
 350 932 l 1
 583 949 l 1
 565 870 l 1xc0
EndSplineSet
EndChar

StartChar: daggerdbl
Encoding: 270 8225 113
Width: 555
VWidth: 1986
Flags: HMW
HStem: -24 1244<81 453 81 453>
VStem: 106 70
LayerCount: 2
Fore
SplineSet
310 896 m 1
 73 870 l 1
 90 949 l 1
 318 932 l 1
 346 1222 l 1
 453 1222 l 1
 358 932 l 1
 592 949 l 1
 575 870 l 1
 350 896 l 1
 346 789 265 403 225 302 c 1
 458 327 l 1
 443 248 l 1
 217 265 l 1
 188 -24 l 1
 81 -24 l 1
 176 265 l 1
 -59 248 l 1
 -44 327 l 1
 184 302 l 1
 186 404 270 793 310 896 c 1
EndSplineSet
EndChar

StartChar: circumflex
Encoding: 271 710 114
Width: 598
VWidth: 1986
Flags: HMW
HStem: 931 275<125 421 125 421 419 419 419 421 325 509>
LayerCount: 2
Fore
SplineSet
209 931 m 1
 125 931 l 1
 325 1206 l 1
 421 1206 l 1
 509 931 l 1
 419 931 l 1
 363 1156 l 1
 209 931 l 1
EndSplineSet
EndChar

StartChar: guilsinglleft
Encoding: 272 8249 115
Width: 505
VWidth: 1986
Flags: HMW
HStem: 651 20G<57 57 166 166>
VStem: -85 324
LayerCount: 2
Fore
SplineSet
57 670 m 1
 412 1052 l 1
 461 1052 l 1
 166 670 l 1
 298 284 l 1
 249 284 l 1
 57 670 l 1
EndSplineSet
EndChar

StartChar: quoteleft
Encoding: 273 8216 116
Width: 428
VWidth: 1986
Flags: HMW
HStem: 721 546
VStem: -178 296
LayerCount: 2
Fore
SplineSet
303 968 m 1
 174 968 l 1
 202 1091 l 1
 223 1191 273 1267 375 1267 c 1
 366 1223 l 1
 294 1200 285 1174 267 1090 c 1
 328 1090 l 1
 303 968 l 1
EndSplineSet
EndChar

StartChar: quoteright
Encoding: 274 8217 117
Width: 436
VWidth: 1986
Flags: HMW
HStem: 699 547
VStem: -186 298
LayerCount: 2
Fore
SplineSet
249 1245 m 1
 375 1245 l 1
 350 1122 l 1
 327 1023 276 946 174 946 c 1
 183 992 l 1
 256 1013 265 1041 283 1125 c 1
 222 1125 l 1
 249 1245 l 1
EndSplineSet
EndChar

StartChar: quotedblleft
Encoding: 275 8220 118
Width: 657
VWidth: 1986
Flags: HMW
HStem: 721 242 721 546
VStem: -178 296 289 299
LayerCount: 2
Fore
SplineSet
530 968 m 1xb0
 404 968 l 1
 429 1091 l 1
 452 1191 503 1267 605 1267 c 1x70
 596 1223 l 1
 523 1200 514 1174 496 1090 c 1
 557 1090 l 1
 530 968 l 1xb0
303 968 m 1
 174 968 l 1
 202 1091 l 1
 223 1191 273 1267 375 1267 c 1
 366 1223 l 1
 295 1200 285 1174 267 1090 c 1
 328 1090 l 1
 303 968 l 1
EndSplineSet
EndChar

StartChar: quotedblright
Encoding: 276 8221 119
Width: 665
VWidth: 1986
Flags: HMW
HStem: 699 547 999 247
VStem: -180 298 307 296
LayerCount: 2
Fore
SplineSet
249 1245 m 1x70
 375 1245 l 1
 350 1122 l 1
 327 1023 276 946 174 946 c 1
 183 992 l 1
 256 1013 265 1041 283 1125 c 1
 222 1125 l 1
 249 1245 l 1x70
476 1245 m 1
 605 1245 l 1
 577 1122 l 1
 556 1023 506 946 404 946 c 1
 412 992 l 1
 483 1013 494 1041 512 1125 c 1
 451 1125 l 1
 476 1245 l 1
EndSplineSet
EndChar

StartChar: bullet
Encoding: 277 8226 120
Width: 734
VWidth: 1986
Flags: HMW
HStem: 446 466<345 395>
VStem: -17 486
LayerCount: 2
Fore
SplineSet
420 913 m 0
 538 913 619 836 619 728 c 0
 619 578 469 446 320 446 c 0
 202 446 123 526 123 633 c 0
 123 786 270 913 420 913 c 0
EndSplineSet
EndChar

StartChar: endash
Encoding: 278 8211 121
Width: 1024
VWidth: 1986
Flags: HMW
HStem: 0 60<105 815 91 827>
LayerCount: 2
Fore
SplineSet
105 60 m 1
 827 60 l 1
 815 0 l 1
 91 0 l 1
 105 60 l 1
EndSplineSet
EndChar

StartChar: emdash
Encoding: 279 8212 122
Width: 1388
VWidth: 1986
Flags: HMW
HStem: -470 126
LayerCount: 2
Fore
SplineSet
105 60 m 1
 1191 60 l 1
 1179 0 l 1
 91 0 l 1
 105 60 l 1
EndSplineSet
EndChar

StartChar: tilde
Encoding: 280 732 123
Width: 742
VWidth: 1986
Flags: HMW
HStem: 1032 89<511 549> 1079 42 1079 89<291 314>
LayerCount: 2
Fore
SplineSet
210 1039 m 1x40
 170 1039 l 1
 200 1129 260 1168 323 1168 c 0x20
 410 1168 477 1121 545 1121 c 0
 582 1121 614 1137 630 1164 c 1
 666 1164 l 1
 640 1082 586 1032 513 1032 c 0x80
 413 1032 349 1079 277 1079 c 0
 242 1079 224 1066 210 1039 c 1x40
EndSplineSet
EndChar

StartChar: trademark
Encoding: 281 8482 124
Width: 1660
VWidth: 1986
Flags: HMW
HStem: 0 56 214 85 478 151 542 198 570 59 653 86
VStem: -58 211 -53 93 -21 58 20 70 115 118 194 49 305 95 391 61 452 176 480 91 514 39 923 112
LayerCount: 2
Fore
SplineSet
204 1247 m 1xc00040
 760 1247 l 1
 717 1037 l 1
 658 1037 l 1
 693 1194 l 1
 499 1194 l 1
 387 665 l 1
 475 665 l 1
 463 617 l 1
 231 617 l 1
 241 665 l 1
 328 665 l 1
 440 1194 l 1
 249 1194 l 1
 216 1037 l 1
 159 1037 l 1
 204 1247 l 1xc00040
1140 644 m 1
 1006 1126 l 1
 908 666 l 1
 990 666 l 1
 980 617 l 1
 760 617 l 1
 771 666 l 1
 850 666 l 1
 964 1198 l 1
 885 1198 l 1
 895 1247 l 1
 1038 1247 l 1
 1166 766 l 1
 1274 924 1384 1090 1491 1247 c 1
 1633 1247 l 1
 1624 1198 l 1
 1544 1198 l 1
 1432 666 l 1
 1511 666 l 1
 1500 617 l 1
 1284 617 l 1
 1293 666 l 1
 1373 666 l 1
 1470 1125 l 1
 1140 644 l 1
EndSplineSet
EndChar

StartChar: guilsinglright
Encoding: 282 8250 125
Width: 503
VWidth: 1986
Flags: HMW
HStem: 651 20G<327 327 436 436>
VStem: -29 322
LayerCount: 2
Fore
SplineSet
242 1052 m 1
 436 670 l 1
 78 284 l 1
 30 284 l 1
 327 670 l 1
 193 1052 l 1
 242 1052 l 1
EndSplineSet
EndChar

StartChar: exclamdown
Encoding: 283 161 126
Width: 440
VWidth: 1986
Flags: HMW
HStem: -129 20G 999 182
VStem: -43 135
LayerCount: 2
Fore
SplineSet
260 1076 m 1
 283 1182 l 1
 387 1182 l 1
 366 1076 l 1
 260 1076 l 1
246 836 m 1
 277 836 l 1
 206 364 l 1
 130 0 l 1
 40 0 l 1
 117 364 l 1
 246 836 l 1
EndSplineSet
EndChar

StartChar: cent
Encoding: 284 162 127
Width: 909
VWidth: 1986
Flags: HMW
HStem: -425 21G -216 21G<74 138 74 74> -27 156 -14 67 606 256<536 823 536 755> 626 387 795 67<428 550> 1054 20G<725 783 783 783> 1423 20G
VStem: -100 79
LayerCount: 2
Fore
SplineSet
-16 325 m 0xd9c0
 -16 642 243 857 536 861 c 0
 565 861 589 858 615 854 c 1
 725 1074 l 1
 783 1074 l 1
 667 842 l 1
 725 822 764 790 778 756 c 1
 801 868 l 1
 878 868 l 1
 823 606 l 1
 755 606 l 1
 756 614 756 622 756 629 c 0
 756 692 727 753 636 780 c 1
 278 65 l 1
 306 58 333 54 364 54 c 0
 491 54 636 110 748 224 c 1
 754 150 l 1
 615 35 471 -14 346 -14 c 0
 312 -14 278 -9 245 -1 c 1
 138 -216 l 1
 74 -216 l 1
 191 15 l 1
 68 65 -16 175 -16 325 c 0xd9c0
522 795 m 0xc3c0
 324 795 68 634 68 334 c 0
 68 212 131 126 226 84 c 1
 581 791 l 1
 563 793 544 795 522 795 c 0xc3c0
EndSplineSet
EndChar

StartChar: sterling
Encoding: 285 163 128
Width: 1036
VWidth: 1986
Flags: HMW
HStem: -22 93 -22 285 566 98 977 290<636 1003 636 927>
VStem: -62 69 123 86 720 76 822 31 1069 68
LayerCount: 2
Fore
SplineSet
315 872 m 0x7f80
 315 1123 513 1267 745 1267 c 0
 921 1267 1013 1188 1013 1053 c 0
 1013 1029 1010 1004 1003 977 c 1
 927 977 l 1
 933 1001 936 1021 936 1043 c 0
 936 1137 881 1200 739 1200 c 0
 540 1200 406 1093 406 887 c 0
 406 795 441 714 470 616 c 1
 849 616 l 1
 840 566 l 1
 477 566 l 1
 482 528 485 493 485 456 c 0
 485 357 464 257 410 157 c 1
 455 80 535 45 626 45 c 0
 770 45 834 149 858 264 c 1
 909 264 l 1
 897 102 784 -30 614 -30 c 0
 516 -30 433 12 382 108 c 1
 293 -33 131 -48 83 -48 c 0
 -48 -48 -101 11 -101 85 c 0
 -101 236 49 303 161 303 c 0
 246 303 326 267 357 206 c 1
 388 280 401 354 401 425 c 0
 401 475 395 521 385 566 c 1
 135 566 l 1
 145 616 l 1
 369 616 l 1
 344 697 315 786 315 872 c 0x7f80
153 247 m 0
 73 247 -28 203 -28 95 c 0
 -28 34 27 7 90 7 c 0
 179 7 287 55 332 155 c 1
 297 212 226 247 153 247 c 0
EndSplineSet
EndChar

StartChar: currency
Encoding: 164 164 129
Width: 1095
VWidth: 1986
Flags: HMW
HStem: 546 21G<187 187 822 822> 589 138 1219 144 1382 20G<368 368 1005 1005>
VStem: -3 174 605 173
LayerCount: 2
Fore
SplineSet
243 728 m 1
 212 778 196 837 196 900 c 0
 196 1010 245 1130 345 1220 c 1
 267 1319 l 1
 368 1401 l 1
 452 1297 l 1
 519 1336 599 1356 672 1356 c 0
 748 1356 821 1336 875 1295 c 1
 1005 1401 l 1
 1070 1319 l 1
 949 1218 l 1
 976 1168 991 1110 991 1053 c 0
 991 942 941 826 843 731 c 1
 924 629 l 1
 822 546 l 1
 737 653 l 1
 671 612 592 593 517 593 c 0
 442 593 368 612 316 652 c 1
 187 546 l 1
 121 629 l 1
 243 728 l 1
878 967 m 0
 883 993 886 1017 886 1040 c 0
 886 1186 776 1258 653 1258 c 0
 503 1258 303 1141 303 903 c 0
 303 757 414 687 538 687 c 0
 680 687 837 778 878 967 c 0
EndSplineSet
EndChar

StartChar: yen
Encoding: 286 165 130
Width: 1241
VWidth: 1986
Flags: HMW
HStem: 0 79 0 125 359 143 609 144 970 78 1162 83 1272 125 1468 78
VStem: 261 194 351 52
LayerCount: 2
Fore
SplineSet
919 291 m 1x7f
 906 229 l 1
 566 229 l 1
 531 62 l 1
 693 62 l 1
 679 0 l 1
 272 0 l 1
 285 62 l 1
 448 62 l 1
 483 229 l 1
 150 229 l 1
 163 291 l 1
 497 291 l 1
 528 438 l 1
 194 438 l 1
 208 501 l 1
 506 501 l 1
 239 1182 l 1
 79 1182 l 1
 93 1245 l 1
 502 1245 l 1
 486 1182 l 1
 328 1182 l 1
 586 512 l 1
 1123 1182 l 1
 962 1182 l 1
 976 1245 l 1
 1383 1245 l 1
 1369 1182 l 1
 1212 1182 l 1
 660 501 l 1
 963 501 l 1
 949 438 l 1
 611 438 l 1
 579 291 l 1
 919 291 l 1x7f
EndSplineSet
EndChar

StartChar: brokenbar
Encoding: 287 166 131
Width: 400
VWidth: 1986
Flags: HMW
HStem: 475 21G 1227 20G
VStem: 279 148
LayerCount: 2
Fore
SplineSet
185 722 m 1
 302 1267 l 1
 370 1267 l 1
 254 722 l 1
 185 722 l 1
28 -23 m 1
 143 522 l 1
 213 522 l 1
 96 -23 l 1
 28 -23 l 1
EndSplineSet
EndChar

StartChar: dieresis
Encoding: 168 168 132
Width: 634
VWidth: 1986
Flags: HMW
HStem: 1199 263
VStem: -100 273 389 270
LayerCount: 2
Fore
SplineSet
426 1055 m 1
 527 1055 l 1
 503 948 l 1
 402 948 l 1
 426 1055 l 1
181 1055 m 1
 282 1055 l 1
 258 948 l 1
 157 948 l 1
 181 1055 l 1
EndSplineSet
EndChar

StartChar: copyright
Encoding: 288 169 133
Width: 1428
VWidth: 1986
Flags: HMW
HStem: -23 93 -22 26 239 51 309 45 771 210 885 48 1236 33
VStem: -74 25 6 64 252 45 1126 31
LayerCount: 2
Fore
SplineSet
776 919 m 0x3be0
 616 919 401 784 401 539 c 0
 401 396 510 308 645 308 c 0
 752 308 875 356 968 452 c 1
 975 383 l 1
 856 285 734 244 630 244 c 0
 459 244 324 356 324 529 c 0
 324 795 544 981 789 981 c 0
 897 981 969 946 990 903 c 1
 1007 987 l 1
 1079 987 l 1
 1032 760 l 1
 970 760 l 1
 970 765 971 771 971 776 c 0
 971 847 929 919 776 919 c 0x3be0
836 1210 m 0
 385 1210 121 802 121 476 c 0
 121 234 263 35 586 35 c 0
 1025 35 1302 428 1302 755 c 0
 1302 997 1156 1210 836 1210 c 0
574 -23 m 0xb3e0
 210 -23 46 206 46 473 c 0
 46 838 353 1270 848 1270 c 0
 1212 1270 1375 1039 1375 772 c 0
 1375 407 1075 -23 574 -23 c 0xb3e0
EndSplineSet
EndChar

StartChar: ordfeminine
Encoding: 289 170 134
Width: 795
VWidth: 1986
Flags: HMW
HStem: 316 89 600 80 647 21G<245 345> 655 56 655 60<598 693> 853 99 941 64<386 455> 1203 64<437 513>
VStem: -99 110 298 122
LayerCount: 2
Fore
SplineSet
131 788 m 0xa1c0
 131 979 308 1005 434 1005 c 0
 484 1005 531 998 581 988 c 1
 599 1065 l 2
 603 1081 605 1095 605 1108 c 0
 605 1179 553 1203 471 1203 c 0
 386 1203 316 1181 262 1134 c 1
 238 1192 l 1
 307 1246 389 1267 485 1267 c 0
 640 1267 679 1194 679 1123 c 0
 679 1107 677 1092 674 1077 c 2
 598 716 l 1
 705 716 l 1
 693 655 l 1
 523 655 l 1x8bc0
 526 714 l 1
 455 672 383 647 306 647 c 0
 185 647 131 710 131 788 c 0xa1c0
427 941 m 0
 346 941 208 939 208 801 c 0
 208 755 236 712 326 712 c 0x93c0
 402 712 470 728 538 779 c 1
 568 926 l 1
 546 931 483 941 427 941 c 0
EndSplineSet
EndChar

StartChar: logicalnot
Encoding: 290 172 135
Width: 969
VWidth: 1986
Flags: HMW
HStem: 308 21G 623 80<86 738 70 832>
VStem: 606 76
LayerCount: 2
Fore
SplineSet
86 703 m 1
 832 703 l 1
 747 307 l 1
 669 307 l 1
 738 623 l 1
 70 623 l 1
 86 703 l 1
EndSplineSet
EndChar

StartChar: registered
Encoding: 292 174 137
Width: 1428
VWidth: 1986
Flags: HMW
HStem: -22 93 230 85 586 64 896 92 1162 102
VStem: -60 105 315 50 346 64 740 74 1056 111
LayerCount: 2
Fore
SplineSet
315 260 m 1xfec0
 327 318 l 1
 414 318 l 1
 544 940 l 1
 450 940 l 1
 464 997 l 1
 845 997 l 2
 970 997 1025 924 1025 841 c 0
 1025 734 934 605 780 596 c 1
 891 318 l 1
 994 318 l 1
 981 260 l 1
 829 260 l 1
 702 596 l 1
 542 596 l 1
 483 318 l 1
 580 318 l 1
 567 260 l 1
 315 260 l 1xfec0
615 940 m 1
 554 654 l 1
 772 654 l 2
 886 654 957 748 957 825 c 0
 957 887 919 940 833 940 c 2
 615 940 l 1
836 1210 m 0
 385 1210 121 802 121 476 c 0
 121 234 263 35 586 35 c 0
 1025 35 1302 428 1302 755 c 0
 1302 997 1156 1210 836 1210 c 0
574 -23 m 0
 210 -23 46 206 46 473 c 0
 46 838 353 1270 848 1270 c 0
 1212 1270 1375 1039 1375 772 c 0
 1375 407 1075 -23 574 -23 c 0
EndSplineSet
EndChar

StartChar: macron
Encoding: 293 175 138
Width: 541
VWidth: 1986
Flags: HMW
HStem: 1068 65<66 475 81 461>
LayerCount: 2
Fore
SplineSet
66 1068 m 1
 81 1134 l 1
 475 1134 l 1
 461 1068 l 1
 66 1068 l 1
EndSplineSet
EndChar

StartChar: degree
Encoding: 176 176 139
Width: 862
VWidth: 1986
Flags: HMW
HStem: 776 109 1246 104
VStem: -39 120 447 118
LayerCount: 2
Fore
SplineSet
520 1250 m 0
 395 1250 278 1157 278 1017 c 0
 278 928 342 873 441 873 c 0
 566 873 684 967 684 1107 c 0
 684 1196 619 1250 520 1250 c 0
419 775 m 0
 288 775 163 849 163 997 c 0
 163 1230 382 1348 542 1348 c 0
 674 1348 798 1274 798 1126 c 0
 798 894 579 775 419 775 c 0
EndSplineSet
EndChar

StartChar: plusminus
Encoding: 294 177 140
Width: 850
VWidth: 1986
Flags: HMW
HStem: 540 64<44 388 28 403 464 810 44 451>
VStem: 273 63
LayerCount: 2
Fore
SplineSet
694 0 m 1
 707 62 l 1
 -74 62 l 1
 -87 0 l 1
 694 0 l 1
547 992 m 1
 464 604 l 1
 824 604 l 1
 810 540 l 1
 451 540 l 1
 365 140 l 1
 304 140 l 1
 388 540 l 1
 28 540 l 1
 44 604 l 1
 403 604 l 1
 484 992 l 1
 547 992 l 1
EndSplineSet
EndChar

StartChar: twosuperior
Encoding: 295 178 141
Width: 833
VWidth: 1986
Flags: HMW
HStem: 0 72<167 552> 167 94 541 349<182 587 182 587> 820 70<446 551>
VStem: -62 82 69 77 322 76 516 77
LayerCount: 2
Fore
SplineSet
503 820 m 0xdf
 354 820 261 713 261 541 c 1
 182 541 l 1
 182 758 338 890 521 890 c 0
 654 890 737 823 737 705 c 0
 737 685 735 665 730 642 c 0
 690 454 312 193 167 72 c 1
 568 72 l 1
 552 0 l 1xef
 42 0 l 1
 55 70 l 1
 155 153 656 474 656 692 c 0
 656 774 601 820 503 820 c 0xdf
EndSplineSet
EndChar

StartChar: threesuperior
Encoding: 296 179 142
Width: 820
VWidth: 1986
Flags: HMW
HStem: -16 69 156 88 428 74<285 307 269 349> 490 81 631 260 666 220 820 71<413 498>
VStem: -20 73 178 394
LayerCount: 2
Fore
SplineSet
349 503 m 2xe580
 464 503 630 521 630 688 c 0
 630 776 543 820 452 820 c 0xd380
 369 820 281 793 219 708 c 1xd580
 159 740 l 1
 239 850 357 891 468 891 c 0xd980
 592 891 709 823 709 700 c 0
 709 589 632 505 535 467 c 1
 604 441 640 380 640 304 c 0
 640 114 442 -13 276 -13 c 0
 156 -13 52 46 20 162 c 1
 89 202 l 1
 115 102 196 53 298 53 c 0
 425 53 561 155 561 297 c 0
 561 420 426 428 307 428 c 2
 269 428 l 1
 285 503 l 1
 349 503 l 2xe580
EndSplineSet
EndChar

StartChar: acute
Encoding: 180 180 143
Width: 432
VWidth: 1986
Flags: HMW
HStem: 994 251<153 394 153 394>
LayerCount: 2
Fore
SplineSet
185 994 m 1
 153 994 l 1
 266 1245 l 1
 394 1245 l 1
 185 994 l 1
EndSplineSet
EndChar

StartChar: mu
Encoding: 297 181 144
Width: 1154
VWidth: 1986
Flags: HMW
HStem: -474 530 -14 21G<340 445> 0 55 787 81
VStem: -72 205 452 254 708 70
LayerCount: 2
Fore
SplineSet
811 58 m 1x9e
 986 58 l 1
 974 0 l 1
 732 0 l 1x3e
 746 105 l 1
 595 25 507 -14 381 -14 c 0x5e
 298 -14 243 7 208 41 c 1
 149 -235 l 1
 68 -235 l 1
 285 784 l 1
 108 784 l 1
 121 844 l 1
 377 844 l 1
 245 210 l 2
 242 197 242 184 242 170 c 0
 242 101 277 53 403 53 c 0
 534 53 639 110 755 174 c 1
 885 784 l 1
 709 784 l 1
 722 844 l 1
 978 844 l 1
 811 58 l 1x9e
EndSplineSet
EndChar

StartChar: paragraph
Encoding: 298 182 145
Width: 994
VWidth: 1986
Flags: HMW
HStem: -306 21G 0 62 522 66 1182 64<896 1063 896 896> 1228 152
VStem: -248 601 563 81 648 85
LayerCount: 2
Fore
SplineSet
558 -23 m 1xef
 704 666 l 1
 507 666 l 1
 360 -23 l 1
 279 -23 l 1
 426 666 l 1
 389 666 l 2
 192 666 103 780 103 906 c 0
 103 1062 253 1245 511 1245 c 2
 1078 1245 l 1
 1063 1182 l 1
 896 1182 l 1xf7
 641 -23 l 1
 558 -23 l 1xef
EndSplineSet
EndChar

StartChar: periodcentered
Encoding: 299 183 146
Width: 264
VWidth: 1986
Flags: HMW
HStem: 541 255
VStem: -64 274
LayerCount: 2
Fore
SplineSet
87 823 m 1
 205 823 l 1
 179 702 l 1
 60 702 l 1
 87 823 l 1
EndSplineSet
EndChar

StartChar: cedilla
Encoding: 184 184 147
Width: 448
VWidth: 1986
Flags: HMW
HStem: -284 59 -14 20G<192 243 243 243>
VStem: 235 109
LayerCount: 2
Fore
SplineSet
46 -258 m 1
 55 -212 l 1
 69 -216 105 -226 137 -226 c 0
 161 -226 193 -217 193 -190 c 0
 193 -165 155 -151 101 -146 c 1
 192 6 l 1
 243 6 l 1
 179 -109 l 1
 191 -109 l 2
 264 -109 298 -144 298 -185 c 0
 298 -229 252 -279 162 -279 c 0
 117 -279 73 -268 46 -258 c 1
EndSplineSet
EndChar

StartChar: onesuperior
Encoding: 300 185 148
Width: 555
VWidth: 1986
Flags: HMW
HStem: 0 72 165 79 793 81 800 74
VStem: -41 170 42 193 66 64 170 65
LayerCount: 2
Fore
SplineSet
245 61 m 1xc0
 363 61 l 1
 350 0 l 1
 36 0 l 1
 48 61 l 1
 170 61 l 1
 327 795 l 1
 218 774 l 1
 215 841 l 1
 419 877 l 1
 245 61 l 1xc0
EndSplineSet
EndChar

StartChar: ordmasculine
Encoding: 301 186 149
Width: 890
VWidth: 1986
Flags: HMW
HStem: -16 72 489 98 848 98
VStem: -46 75 -35 112 344 113 525 73
LayerCount: 2
Fore
SplineSet
428 712 m 0xe6
 561 712 734 819 734 1018 c 0
 734 1140 639 1203 532 1203 c 0
 398 1203 226 1098 226 899 c 0
 226 775 320 712 428 712 c 0xe6
810 1032 m 0
 810 783 586 647 413 647 c 0
 272 647 149 728 149 886 c 0
 149 1135 371 1267 544 1267 c 0
 685 1267 810 1189 810 1032 c 0
EndSplineSet
EndChar

StartChar: onequarter
Encoding: 302 188 150
Width: 1417
VWidth: 1986
Flags: HMW
HStem: 0 73 193 102 367 73 535 77 687 39 854 20G<1242 1335 1335 1335> 1160 82
VStem: -169 170 40 67 813 129 904 69
LayerCount: 2
Fore
SplineSet
194 431 m 1xff80
 314 431 l 1
 300 367 l 1
 -16 367 l 1
 -3 431 l 1
 121 431 l 1
 275 1162 l 1
 164 1142 l 1
 164 1208 l 1
 368 1245 l 1
 194 431 l 1xff80
780 262 m 1
 783 318 l 1
 1242 874 l 1
 1335 874 l 1
 1219 326 l 1
 1398 326 l 1
 1384 262 l 1
 1205 262 l 1
 1161 61 l 1
 1275 61 l 1
 1262 0 l 1
 963 0 l 1
 975 61 l 1
 1088 61 l 1
 1132 262 l 1
 780 262 l 1
875 326 m 1
 1144 326 l 1
 1240 775 l 1
 1115 622 999 481 875 326 c 1
346 -23 m 1
 995 1267 l 1
 1067 1267 l 1
 422 -23 l 1
 346 -23 l 1
EndSplineSet
EndChar

StartChar: onehalf
Encoding: 303 189 151
Width: 1569
VWidth: 1986
Flags: HMW
HStem: 0 72<991 1377> 167 94 367 73 535 77 541 349<1006 1411 1006 1411> 799 91 820 70<1270 1376> 1160 82
VStem: -169 170 40 67 449 81 579 79 833 78 1027 78
LayerCount: 2
Fore
SplineSet
194 431 m 1xf5fc
 314 431 l 1
 300 367 l 1
 -16 367 l 1
 -3 431 l 1
 121 431 l 1
 275 1162 l 1
 164 1142 l 1
 164 1208 l 1
 368 1245 l 1
 194 431 l 1xf5fc
1328 820 m 0xf3fc
 1180 820 1085 713 1085 541 c 1
 1006 541 l 1
 1006 758 1162 890 1344 890 c 0xe9fc
 1477 890 1560 823 1560 705 c 0
 1560 685 1558 665 1553 642 c 0
 1513 454 1136 193 991 72 c 1
 1392 72 l 1
 1377 0 l 1
 866 0 l 1
 880 70 l 1
 981 153 1480 472 1480 692 c 0
 1480 774 1426 820 1328 820 c 0xf3fc
344 -23 m 1
 994 1267 l 1
 1065 1267 l 1
 420 -23 l 1
 344 -23 l 1
EndSplineSet
EndChar

StartChar: threequarters
Encoding: 304 190 152
Width: 1711
VWidth: 1986
Flags: HMW
HStem: 0 73 193 102 352 70 525 87 687 39 797 74<248 267 231 312> 854 20G<1536 1629 1536 1536> 857 82 999 259 1037 218 1188 70<375 460>
VStem: -135 72 63 394 773 129
LayerCount: 2
Fore
SplineSet
1077 318 m 1xf95c
 1074 262 l 1
 1426 262 l 1
 1382 61 l 1
 1269 61 l 1
 1256 0 l 1
 1556 0 l 1
 1569 61 l 1
 1455 61 l 1
 1499 262 l 1
 1678 262 l 1
 1692 326 l 1
 1512 326 l 1
 1629 874 l 1
 1536 874 l 1xfa5c
 1077 318 l 1xf95c
312 871 m 2xfc5c
 426 871 590 887 590 1054 c 0
 590 1143 505 1188 414 1188 c 0xf93c
 331 1188 242 1161 180 1077 c 1
 121 1107 l 1
 201 1218 320 1258 431 1258 c 0xf99c
 555 1258 671 1191 671 1068 c 0
 671 956 593 874 497 838 c 1
 565 810 602 748 602 674 c 0
 602 483 406 355 238 355 c 0
 118 355 13 414 -20 532 c 1
 51 570 l 1
 77 469 157 422 259 422 c 0
 385 422 524 522 524 663 c 0
 524 789 386 797 267 797 c 2
 231 797 l 1
 248 871 l 1
 312 871 l 2xfc5c
1438 326 m 1
 1169 326 l 1
 1293 481 1408 622 1534 775 c 1
 1438 326 l 1
586 -23 m 1
 1237 1267 l 1
 1307 1267 l 1
 662 -23 l 1
 586 -23 l 1
EndSplineSet
EndChar

StartChar: questiondown
Encoding: 305 191 153
Width: 673
VWidth: 1986
Flags: HMW
HStem: -55 336 -23 72<186 309> 1154 79<467 568 483 552>
VStem: -73 76 222 69 514 72
LayerCount: 2
Fore
SplineSet
534 198 m 1x7c
 588 161 l 1
 506 33 374 -23 244 -23 c 0x7c
 92 -23 -23 66 -23 213 c 0
 -23 236 -21 256 -16 280 c 0
 50 594 341 509 453 920 c 1
 486 920 l 1
 391 474 118 541 63 280 c 0xbc
 59 260 57 245 57 227 c 0
 57 131 116 50 256 50 c 0
 384 50 480 111 534 198 c 1x7c
467 1154 m 1
 483 1235 l 1
 568 1235 l 1
 552 1154 l 1
 467 1154 l 1
EndSplineSet
EndChar

StartChar: multiply
Encoding: 215 215 154
Width: 609
VWidth: 1986
Flags: HMW
HStem: 139 21G 619 20G
LayerCount: 2
Fore
SplineSet
92 775 m 1
 146 820 l 1
 307 615 l 1
 557 822 l 1
 592 776 l 1
 345 570 l 1
 504 364 l 1
 450 319 l 1
 288 526 l 1
 40 320 l 1
 4 364 l 1
 253 570 l 1
 92 775 l 1
EndSplineSet
EndChar

StartChar: Oslash
Encoding: 306 216 155
Width: 1279
VWidth: 1986
Flags: HMW
HStem: -27 20G -23 102 620 647 1162 105
VStem: 60 68 1190 68
LayerCount: 2
Fore
SplineSet
1111 1379 m 1x0c
 1158 1355 l 1
 194 -139 l 1
 147 -114 l 1
 1111 1379 l 1x0c
EndSplineSet
EndChar

StartChar: eth
Encoding: 307 240 156
Width: 928
VWidth: 1986
Flags: HMW
HStem: -23 72<298 504> 667 102 1098 396 1186 56 1301 20
VStem: 1 576 259 77 414 76
LayerCount: 2
Fore
SplineSet
272 969 m 1xc0
 255 1021 l 1
 493 1120 l 1
 435 1195 367 1269 294 1327 c 1
 362 1393 l 1
 444 1311 513 1229 570 1152 c 1
 825 1259 l 1
 846 1204 l 1
 604 1105 l 1
 831 770 842 499 842 436 c 0
 842 177 632 -23 375 -23 c 0
 150 -23 46 115 46 284 c 0
 46 535 274 752 520 752 c 0
 584 752 668 728 717 685 c 1
 698 776 630 928 527 1073 c 1
 272 969 l 1xc0
515 683 m 0
 349 683 128 544 128 288 c 0
 128 160 207 50 390 50 c 0
 627 50 771 254 771 426 c 0
 771 563 692 683 515 683 c 0
EndSplineSet
EndChar

StartChar: divide
Encoding: 247 247 157
Width: 553
VWidth: 1986
Flags: HMW
HStem: 126 21G 157 122<166 257 140 282> 527 144 1046 20G
VStem: 90 193 107 118
LayerCount: 2
Fore
SplineSet
519 416 m 1xf0
 532 479 l 1
 -3 479 l 1
 -16 416 l 1
 519 416 l 1xf0
166 279 m 1
 282 279 l 1
 257 157 l 1
 140 157 l 1
 166 279 l 1
263 732 m 1
 379 732 l 1
 352 610 l 1
 236 610 l 1
 263 732 l 1
EndSplineSet
EndChar

StartChar: oslash
Encoding: 308 248 158
Width: 895
VWidth: 1986
Flags: HMW
HStem: -121 20G 0 24 487 357
VStem: 51 83 285 69 858 29 881 80
LayerCount: 2
Fore
SplineSet
821 913 m 1xf8
 856 890 l 1
 123 -124 l 1
 88 -100 l 1
 821 913 l 1xf8
EndSplineSet
EndChar

StartChar: Thorn
Encoding: 309 222 159
Width: 1082
VWidth: 1986
Flags: HMW
HStem: 0 62<-39 117 198 356 -51 117> 328 100 425 66<289 677 275 691> 955 112 1162 83
VStem: 103 82 793 50
LayerCount: 2
Fore
SplineSet
436 1182 m 1xde
 408 1051 l 1
 810 1051 l 2
 1008 1051 1093 941 1093 812 c 0
 1093 638 929 425 677 425 c 2
 275 425 l 1xbe
 198 62 l 1
 369 62 l 1
 356 0 l 1
 -51 0 l 1
 -39 62 l 1
 117 62 l 1
 353 1182 l 1
 201 1182 l 1
 216 1245 l 1
 606 1245 l 1
 592 1182 l 1
 436 1182 l 1xde
395 989 m 1
 289 491 l 1
 691 491 l 2
 885 491 1013 659 1013 801 c 0
 1013 902 947 989 797 989 c 2
 395 989 l 1
EndSplineSet
EndChar

StartChar: germandbls
Encoding: 223 223 160
Width: 1080
VWidth: 1986
Flags: HMW
HStem: 0 79 647 45<590 590 590 708> 1191 75<590 771>
VStem: 171 9 530 299 582 369 797 32 942 10
LayerCount: 2
Fore
SplineSet
179 62 m 1xf0
 297 62 l 1
 283 0 l 1
 -70 0 l 1
 -57 62 l 1
 98 62 l 1
 267 858 l 2
 321 1116 457 1267 705 1267 c 0
 905 1267 1001 1150 1001 1023 c 0
 1001 891 906 719 714 683 c 1
 901 675 1006 560 1006 412 c 0
 1006 182 813 0 436 0 c 1
 449 62 l 1
 664 62 872 123 919 341 c 0
 924 363 926 385 926 407 c 0
 926 538 834 647 581 647 c 1
 590 692 l 1
 794 702 920 873 920 1010 c 0
 920 1109 848 1191 694 1191 c 0
 486 1191 399 1098 349 863 c 2
 179 62 l 1xf0
EndSplineSet
EndChar

StartChar: thorn
Encoding: 310 254 161
Width: 1086
VWidth: 1986
Flags: HMW
HStem: -363 21G<-191 51 -191 -191> -303 102 -22 76 -14 67<450 633 450 682> 795 67<603 761> 801 78 1162 83 1185 61<166 304 153 397>
VStem: -114 247 23 242 199 69 857 79 1019 90
LayerCount: 2
Fore
SplineSet
166 1245 m 1xe5b8
 397 1245 l 1
 280 702 l 1
 375 792 526 861 677 861 c 0xe9b8
 925 861 1040 706 1040 528 c 0
 1040 333 870 -14 495 -14 c 0xd6b8
 328 -14 195 73 158 126 c 1
 51 -363 l 1
 -191 -363 l 1
 -178 -303 l 1
 -12 -303 l 1
 304 1185 l 1
 153 1185 l 1
 166 1245 l 1xe5b8
948 431 m 0
 954 459 957 489 957 515 c 0
 957 675 855 795 666 795 c 0xeab8
 539 795 429 763 264 625 c 1xe658
 173 195 l 1
 295 83 389 53 511 53 c 0xd6b8
 754 53 909 248 948 431 c 0
EndSplineSet
EndChar

StartChar: fraction
Encoding: 311 8260 162
Width: 520
VWidth: 1986
Flags: HMW
HStem: -23 21G<-110 -110 -110 -34> 1247 20G<540 611 611 611>
LayerCount: 2
Fore
SplineSet
-110 -23 m 1
 540 1267 l 1
 611 1267 l 1
 -34 -23 l 1
 -110 -23 l 1
EndSplineSet
EndChar

StartChar: breve
Encoding: 162 728 163
Width: 603
VWidth: 1986
Flags: HMW
HStem: 1091 56<324 374> 1091 169<206 374>
LayerCount: 2
Fore
SplineSet
206 1259 m 1x40
 257 1259 l 1x40
 256 1252 255 1245 255 1239 c 0
 255 1177 298 1146 348 1146 c 0x80
 402 1146 465 1183 492 1259 c 1
 536 1259 l 1
 500 1146 412 1091 337 1091 c 0
 266 1091 205 1140 205 1237 c 0
 205 1246 205 1251 206 1259 c 1x40
EndSplineSet
EndChar

StartChar: dotaccent
Encoding: 255 729 164
Width: 430
VWidth: 1986
Flags: HMW
HStem: 1074 121<221 314 195 338> 1150 213 1199 263
VStem: -82 271 -32 117 110 220 406 271
LayerCount: 2
Fore
SplineSet
221 1195 m 1x82
 338 1195 l 1
 314 1074 l 1
 195 1074 l 1
 221 1195 l 1x82
EndSplineSet
EndChar

StartChar: ring
Encoding: 312 730 165
Width: 593
VWidth: 1986
Flags: HMW
HStem: 1005 53 1176 0<193 193 242 242>
VStem: -53 38 241 47
LayerCount: 2
Fore
SplineSet
242 1176 m 0
 240 1166 239 1156 239 1146 c 0
 239 1095 271 1048 340 1048 c 0
 434 1048 492 1135 492 1206 c 0
 492 1257 462 1303 394 1303 c 0
 313 1303 258 1240 242 1176 c 0
193 1176 m 0
 213 1261 288 1348 403 1348 c 0
 499 1348 542 1286 542 1215 c 0
 542 1119 461 1004 330 1004 c 0
 233 1004 189 1067 189 1138 c 0
 189 1151 190 1162 193 1176 c 0
EndSplineSet
EndChar

StartChar: dotlessi
Encoding: 313 305 166
Width: 507
VWidth: 1986
Flags: HMW
HStem: -9 59<224 281 224 287> 761 57<77 229 66 324>
VStem: 107 78<105 125 105 148>
LayerCount: 2
Fore
SplineSet
114 202 m 2
 229 761 l 1
 66 761 l 1
 77 819 l 1
 324 819 l 1
 196 204 l 2
 191 180 183 151 185 125 c 1
 185 84 199 50 249 50 c 0
 313 50 345 132 369 207 c 1
 422 186 l 1
 390 63 334 -9 240 -9 c 0
 149 -9 107 55 107 139 c 0
 107 159 109 180 114 202 c 2
EndSplineSet
EndChar

StartChar: parenright
Encoding: 41 41 167
Width: 533
VWidth: 1986
Flags: HMW
HStem: -92 21G 1476 20G
VStem: -83 491 239 169
LayerCount: 2
Fore
SplineSet
462 819 m 0xc0
 462 412 225 41 -103 -38 c 1
 -89 32 l 1
 227 137 378 526 378 823 c 0
 378 997 318 1150 162 1211 c 1
 177 1280 l 1
 376 1228 462 1040 462 819 c 0xc0
EndSplineSet
EndChar

StartChar: dotaccentcmb
Encoding: 314 775 168
Width: 430
VWidth: 1986
Flags: HMW
HStem: 1074 121<221 314 195 338> 1150 213 1199 263
VStem: -82 271 -32 117 110 220 406 271
LayerCount: 2
Fore
SplineSet
221 1195 m 1x82
 338 1195 l 1
 314 1074 l 1
 195 1074 l 1
 221 1195 l 1x82
EndSplineSet
EndChar

StartChar: commaaccent
Encoding: 315 63171 169
Width: 497
VWidth: 1986
Flags: HMW
HStem: -422 21G -98 292 111 21G 428 20G
VStem: 32 303
LayerCount: 2
Fore
SplineSet
93 -79 m 1xd8
 133 109 l 1
 308 109 l 1xb8
 275 -43 289 32 267 -38 c 1
 229 -174 208 -273 59 -280 c 1
 75 -207 l 1
 119 -196 150 -160 168 -79 c 1
 93 -79 l 1xd8
EndSplineSet
EndChar

StartChar: uni0311
Encoding: 316 785 170
Width: 870
VWidth: 1986
Flags: HMW
HStem: 1091 193<182 605 443 699 443 778> 1230 54<454 574>
LayerCount: 2
Fore
SplineSet
270 1091 m 1x80
 182 1091 l 1
 221 1207 358 1284 527 1284 c 0
 682 1284 779 1214 779 1108 c 0
 779 1102 779 1097 778 1091 c 1
 699 1091 l 1x80
 699 1182 633 1230 515 1230 c 0x40
 393 1230 306 1182 270 1091 c 1x80
EndSplineSet
EndChar

StartChar: uni0326
Encoding: 317 806 171
Width: 448
VWidth: 1986
Flags: HMW
HStem: -270 545 34 21G
VStem: 109 298
LayerCount: 2
Fore
SplineSet
131 117 m 1x20
 257 117 l 1
 232 -6 l 1
 209 -105 159 -182 57 -182 c 1
 67 -138 l 1
 139 -114 149 -89 167 -4 c 1
 105 -4 l 1
 131 117 l 1x20
EndSplineSet
EndChar

StartChar: uni030F
Encoding: 318 783 172
Width: 613
VWidth: 1986
Flags: HMW
HStem: 952 233 994 251<280 313 280 280 493 493 493 524>
LayerCount: 2
Fore
SplineSet
313 994 m 1x40
 280 994 l 1
 178 1245 l 1
 313 1245 l 1
 313 994 l 1x40
524 994 m 1
 493 994 l 1
 391 1245 l 1
 524 1245 l 1
 524 994 l 1
EndSplineSet
EndChar

StartChar: hbar
Encoding: 324 295 183
Width: 1000
VWidth: 1986
Flags: HMW
HStem: 1068 65<99 509 115 494>
LayerCount: 2
Fore
SplineSet
128 961 m 1
 144 1027 l 1
 538 1027 l 1
 523 961 l 1
 128 961 l 1
EndSplineSet
Refer: 10 104 N 1 0 0 1 0 0 2
EndChar

StartChar: kgreenlandic
Encoding: 331 312 192
Width: 899
VWidth: 1986
Flags: HMW
HStem: -9 59<616 673 616 679> 0 21G<87 170 87 87> 378 57<261 425 248 431> 766 60<751 832 782 832> 1188 56<184 336 171 430>
VStem: 87 744
LayerCount: 2
Fore
SplineSet
425 378 m 1xbc
 248 378 l 1
 170 0 l 1
 87 0 l 1x7c
 249 782 l 1
 85 782 l 1
 98 839 l 1
 344 839 l 1
 261 436 l 1
 431 436 l 1
 608 726 l 2
 659 810 693 825 759 826 c 2
 832 827 l 1
 820 766 l 1
 782 766 l 2
 721 766 709 729 682 687 c 2
 505 405 l 1
 571 153 l 2
 583 112 592 50 641 50 c 0
 707 50 738 132 763 207 c 1
 816 186 l 1
 783 63 727 -9 632 -9 c 0
 541 -9 514 58 490 139 c 1
 425 378 l 1xbc
EndSplineSet
EndChar

StartChar: lslash
Encoding: 179 322 194
Width: 730
VWidth: 1986
Flags: HMW
HStem: 0 60<133 843 120 854>
LayerCount: 2
Fore
SplineSet
429 202 m 2
 636 1188 l 1
 471 1188 l 1
 484 1244 l 1
 730 1244 l 1
 511 204 l 2
 506 180 502 151 502 125 c 0
 502 84 515 50 564 50 c 0
 629 50 662 132 686 207 c 1
 739 186 l 1
 708 63 651 -9 556 -9 c 0
 465 -9 422 55 422 139 c 0
 422 159 424 181 429 202 c 2
365 858 m 5
 884 985 l 5
 872 925 l 5
 352 799 l 5
 365 858 l 5
EndSplineSet
EndChar

StartChar: IJ
Encoding: 352 306 229
Width: 1287
VWidth: 1986
Flags: HMW
HStem: -102 59 0 60<-39 134 215 407 -50 134> 1211 61<183 650 193 371 455 455 455 640 1053 1180 1263 1263 1263 1404>
VStem: -50 1466<0 1272>
LayerCount: 2
Fore
SplineSet
183 1211 m 1
 193 1272 l 1
 650 1272 l 1
 640 1211 l 1
 455 1211 l 1
 215 60 l 1
 417 60 l 1
 407 0 l 1
 -50 0 l 1
 -39 60 l 1
 134 60 l 1
 371 1211 l 1
 183 1211 l 1
945 100 m 2
 1180 1211 l 1
 1040 1211 l 1
 1053 1272 l 1
 1417 1272 l 1
 1404 1211 l 1
 1263 1211 l 1
 1028 101 l 2
 993 -64 900 -103 772 -102 c 2
 664 -101 l 1
 672 -42 l 1
 785 -42 l 2
 881 -42 922 -3 945 100 c 2
EndSplineSet
EndChar

StartChar: Lslash
Encoding: 163 321 233
Width: 1048
VWidth: 1986
Flags: HMW
HStem: 0 60<-41 132 168 869 -51 132 -41 154 168 878>
LayerCount: 2
Fore
SplineSet
852 324 m 1
 936 324 l 1
 869 0 l 2
 154 0 l 1
 -51 0 l 1
 -41 60 l 1
 132 60 l 1
 261 685 l 1
 90 644 l 1
 104 703 l 1
 273 744 l 1
 369 1211 l 1
 181 1211 l 1
 192 1272 l 1
 648 1272 l 1
 638 1211 l 1
 453 1211 l 1
 360 766 l 1
 622 830 l 1
 610 769 l 1
 347 706 l 1
 213 60 l 1
 799 60 l 1
 852 324 l 1
EndSplineSet
EndChar

StartChar: Eth
Encoding: 367 208 254
AltUni2: 000110.ffffffff.0
Width: 1231
VWidth: 1986
Flags: HMW
HStem: 0 60<-33 140 220 547 547 548 -44 140> 1184 61<193 370 183 672 455 455 455 672 672 673> 1375 81<438 712 401 741>
VStem: 1097 81<569 840>
LayerCount: 2
Fore
SplineSet
548 0 m 2
 -44 0 l 1
 -33 60 l 1
 140 60 l 1
 370 1184 l 1
 183 1184 l 1
 193 1244 l 1
 672 1244 l 2
 986 1244 1179 1011 1179 724 c 0
 1179 343 950 0 548 0 c 2
220 60 m 1
 547 60 l 2
 923 60 1097 416 1097 722 c 0
 1097 957 979 1184 673 1184 c 2
 455 1184 l 1
 220 60 l 1
554 709 m 5
 538 647 l 5
 110 647 l 5
 125 709 l 29
 554 709 l 5
EndSplineSet
EndChar

StartChar: foursuperior
Encoding: 369 8308 262
Width: 736
VWidth: 1986
Flags: HMW
HStem: 0 73 193 102 367 73 535 77 687 39 854 20G<463 557 557 557> 1160 82
VStem: -775 170 -565 65 206 130 298 68
LayerCount: 2
Fore
SplineSet
2 262 m 1xffc0
 5 318 l 1
 463 874 l 1
 557 874 l 1
 441 326 l 1
 620 326 l 1
 606 262 l 1
 427 262 l 1
 384 61 l 1
 497 61 l 1
 485 0 l 1
 185 0 l 1
 197 61 l 1
 310 61 l 1
 353 262 l 1
 2 262 l 1xffc0
97 326 m 1
 365 326 l 1xffa0
 461 775 l 1
 337 622 220 481 97 326 c 1
EndSplineSet
EndChar

StartChar: dotlessj
Encoding: 370 567 263
Width: 408
VWidth: 1986
Flags: HMW
HStem: -273 61<-166 -97 -178 -86> 746 57<127 254 116 346>
VStem: -178 524
LayerCount: 2
Fore
SplineSet
87 -35 m 2
 254 746 l 1
 116 746 l 1
 127 803 l 1
 346 803 l 1
 170 -22 l 1
 143 -145 118 -273 -97 -273 c 2
 -178 -273 l 1
 -166 -213 l 1
 -86 -213 l 2
 51 -213 63 -151 87 -35 c 2
EndSplineSet
EndChar

StartChar: uni00AD
Encoding: 173 173 264
Width: 687
VWidth: 1986
Flags: HMW
HStem: 1068 65<169 578 184 563>
LayerCount: 2
Fore
SplineSet
169 1068 m 1
 184 1134 l 1
 578 1134 l 1
 563 1068 l 1
 169 1068 l 1
EndSplineSet
EndChar

StartChar: ff
Encoding: 371 64256 265
Width: 1052
VWidth: 1986
Flags: HMW
HStem: 0 60<-42 124 204 324 -55 124 497 611 692 872> 747 56<111 267 96 280 360 754 847 1020> 1170 59<544 600 1032 1088>
VStem: -55 1264<0 1173>
LayerCount: 2
Fore
SplineSet
1209 1173 m 1
 1163 1125 l 1
 1139 1155 1106 1170 1069 1170 c 0
 995 1170 914 1113 897 1040 c 2
 847 803 l 1
 1034 803 l 1
 1020 747 l 1
 836 747 l 1
 692 60 l 1
 885 60 l 1
 872 0 l 1
 483 0 l 1
 497 60 l 1
 611 60 l 1
 754 747 l 1
 347 747 l 1
 204 60 l 1
 337 60 l 1
 324 0 l 1
 -55 0 l 1
 -42 60 l 1
 124 60 l 1
 267 747 l 1
 96 747 l 1
 111 803 l 1
 280 803 l 1
 329 1038 l 1
 351 1147 469 1230 582 1230 c 0
 632 1230 681 1214 722 1173 c 1
 676 1125 l 1
 651 1155 618 1170 582 1170 c 0
 508 1170 428 1113 411 1040 c 2
 360 803 l 1
 767 803 l 1
 816 1038 l 2
 839 1147 956 1230 1069 1230 c 0
 1119 1230 1168 1214 1209 1173 c 1
EndSplineSet
Ligature2: "'liga'" f f
EndChar

StartChar: fi
Encoding: 372 64257 266
Width: 1057
VWidth: 1986
Flags: HMW
HStem: -9 59<771 829 771 835> 0 60<-42 116 195 376 -53 116> 743 60<118 260 104 274 353 779> 1165 63<631 728>
VStem: 655 78<108 142 108 151> 798 142<1042 1061>
LayerCount: 2
Fore
SplineSet
662 202 m 2x7c
 779 743 l 1
 341 743 l 1
 195 60 l 1
 388 60 l 1
 376 0 l 1
 -53 0 l 1
 -42 60 l 1
 116 60 l 1x7c
 260 743 l 1
 104 743 l 1
 118 803 l 1
 274 803 l 1
 304 947 l 1
 342 1123 537 1229 703 1229 c 0
 816 1229 940 1180 940 1074 c 0
 940 1010 900 984 864 984 c 0
 830 984 798 1006 798 1046 c 0
 798 1075 816 1099 853 1109 c 1
 813 1149 759 1165 698 1165 c 0
 563 1165 408 1070 384 949 c 1
 353 803 l 1
 871 803 l 1
 743 204 l 2
 739 184 734 154 734 128 c 0
 734 87 747 50 797 50 c 0
 862 50 894 132 918 207 c 1
 970 186 l 1
 937 63 882 -9 787 -9 c 0xbc
 694 -9 655 63 655 142 c 0
 655 162 657 181 662 202 c 2x7c
EndSplineSet
Ligature2: "'liga'" f i
EndChar

StartChar: fl
Encoding: 373 64258 267
Width: 1091
VWidth: 1986
Flags: HMW
HStem: -9 59<804 861 804 866> 0 60<-42 116 195 376 -53 116> 746 57<120 263 106 275 354 547> 1201 64<663 781>
VStem: 686 78<105 139 105 148> 892 82<1147 1153>
LayerCount: 2
Fore
SplineSet
693 202 m 2x7c
 892 1134 l 1
 892 1175 829 1201 734 1201 c 0
 594 1201 424 1133 390 974 c 2
 354 803 l 1
 559 803 l 1
 547 746 l 1
 343 746 l 1
 195 60 l 1
 388 60 l 1
 376 0 l 1
 -53 0 l 1
 -42 60 l 1
 116 60 l 1x7c
 263 746 l 1
 106 746 l 1
 120 803 l 1
 275 803 l 1
 309 971 l 1
 351 1174 570 1265 748 1265 c 0
 871 1265 974 1225 974 1150 c 0
 974 1144 973 1141 972 1134 c 2
 775 204 l 1
 764 180 764 151 764 125 c 0
 764 84 780 50 829 50 c 0
 894 50 925 132 949 207 c 1
 1002 186 l 1
 970 63 914 -9 819 -9 c 0xbc
 729 -9 686 55 686 139 c 0
 686 159 688 181 693 202 c 2x7c
EndSplineSet
Ligature2: "'liga'" f l
EndChar

StartChar: a
Encoding: 97 97 268
Width: 1024
VWidth: 1986
Flags: HMW
HStem: -18 59<286 451> -9 59<728 777 728 796> 765 60<378 536 349 547>
VStem: 61 79<241 416 241 427> 626 67<102 121>
LayerCount: 2
Fore
SplineSet
357 -18 m 0xb8
 148 -18 61 135 61 308 c 0
 61 546 227 826 471 826 c 0
 599 826 678 745 708 655 c 1
 740 803 l 1
 826 803 l 1
 699 158 l 1
 695 145 693 135 693 120 c 0
 693 86 705 50 751 50 c 0
 803 50 840 93 872 204 c 1
 929 182 l 1
 902 84 848 -9 743 -9 c 0x78
 670 -9 626 44 626 113 c 0
 626 130 626 144 631 161 c 1
 621 138 546 -18 357 -18 c 0xb8
479 765 m 0
 277 765 141 520 141 314 c 0
 141 167 206 42 365 42 c 0
 582 42 681 345 681 528 c 0
 681 643 615 765 479 765 c 0
EndSplineSet
EndChar

StartChar: r
Encoding: 114 114 269
Width: 636
VWidth: 1986
Flags: HMW
HStem: 0 21G<89 172 89 89> 747 56<92 237 79 327> 765 60<504 555>
VStem: 567 67<646 692>
LayerCount: 2
Fore
SplineSet
558 826 m 0xb0
 621 826 635 797 635 726 c 2
 635 646 l 1
 567 634 l 1
 567 752 571 765 541 765 c 0xb0
 453 765 304 667 262 455 c 2
 172 0 l 1
 89 0 l 1
 237 747 l 1
 79 747 l 1
 92 803 l 1
 327 803 l 1xd0
 287 649 l 1
 351 759 448 826 558 826 c 0xb0
EndSplineSet
EndChar

StartChar: dcroat
Encoding: 240 273 314
Width: 1000
VWidth: 1986
Flags: HW
HStem: -18 59<262 395> -9 59<726 779 726 788> 764 60<341 499 317 517> 909 62<581 994> 1167 55<661 813 650 908>
VStem: 48 70<247 424 247 449> 613 78<107 129>
LayerCount: 2
Fore
SplineSet
1010 971 m 5x3e
 994 909 l 5
 565 909 l 5
 581 971 l 29
 1010 971 l 5x3e
EndSplineSet
Refer: 79 100 N 1 0 0 1 0 0 2
EndChar
